<?xml version="1.0" encoding="UTF-8"?>
<svg version="1.1" xmlns="http://www.w3.org/2000/svg" width="706" height="773">
<path d="M0 0 C1.71985889 -0.00187166 3.43971736 -0.00417376 5.15957516 -0.00686532 C9.85377498 -0.01294573 14.54795688 -0.0128542 19.24215972 -0.01167095 C24.31727041 -0.01146599 29.39237548 -0.01699468 34.46748352 -0.02172852 C44.39792063 -0.03001455 54.3283518 -0.03278241 64.25879208 -0.03334089 C72.33376535 -0.03381695 80.40873668 -0.03587614 88.48370934 -0.03904152 C111.40160313 -0.04784185 134.31949226 -0.05246177 157.23738775 -0.05171105 C159.08842276 -0.05165111 159.08842276 -0.05165111 160.97685242 -0.05158997 C162.83015923 -0.05152864 162.83015923 -0.05152864 164.72090658 -0.05146609 C184.74581136 -0.0510596 204.77069735 -0.0606313 224.7955967 -0.07472833 C245.38039274 -0.08910468 265.96517963 -0.09599785 286.54998082 -0.09513456 C298.09745941 -0.09480306 309.64491829 -0.09752937 321.19239235 -0.10831261 C331.02289604 -0.11743409 340.85337105 -0.11957926 350.68387715 -0.11280318 C355.69445403 -0.10954654 360.70497596 -0.10945032 365.71554756 -0.11815643 C370.31173332 -0.1260601 374.9078209 -0.12455084 379.50400438 -0.1158723 C381.15732201 -0.11434581 382.81064711 -0.11612098 384.46395592 -0.12173238 C398.95879235 -0.16762883 413.21887731 0.24414336 426.71342468 6.13371277 C427.04342468 5.47371277 427.37342468 4.81371277 427.71342468 4.13371277 C427.71342468 5.12371277 427.71342468 6.11371277 427.71342468 7.13371277 C428.42756531 7.38894714 429.14170593 7.64418152 429.87748718 7.90715027 C443.80869024 13.93249153 453.4305424 26.56046494 458.96342468 40.32121277 C462.29903133 50.21730719 462.72736681 60.54116251 463.15092468 70.88371277 C463.78683928 85.1889523 467.33307953 95.05867189 477.71342468 105.13371277 C477.71342468 105.79371277 477.71342468 106.45371277 477.71342468 107.13371277 C478.37342468 107.13371277 479.03342468 107.13371277 479.71342468 107.13371277 C479.71342468 107.79371277 479.71342468 108.45371277 479.71342468 109.13371277 C480.37342468 109.13371277 481.03342468 109.13371277 481.71342468 109.13371277 C483.08842468 110.53215027 483.08842468 110.53215027 484.71342468 112.50871277 C488.4756448 116.96292686 492.5740075 120.99054809 496.77201843 125.03215027 C498.71342468 127.13371277 498.71342468 127.13371277 498.71342468 129.13371277 C499.27158875 129.34125183 499.82975281 129.54879089 500.40483093 129.76261902 C503.54362669 131.6267769 505.48304977 134.20257312 507.65092468 137.07121277 C508.09113953 137.65024353 508.53135437 138.22927429 508.98490906 138.82585144 C516.2184211 148.61654395 520.04008229 159.1568449 519.97069359 171.35947704 C519.97419966 172.15159518 519.97770574 172.94371332 519.98131806 173.75983503 C519.99060048 176.40643835 519.98571692 179.05282009 519.98085022 181.69943237 C519.98458807 183.6192306 519.98919013 185.5390273 519.99458086 187.45882159 C520.00680962 192.72879969 520.00655053 197.9987143 520.00419211 203.26870334 C520.00378392 208.95462768 520.01482341 214.64053168 520.02430725 220.32644653 C520.0409177 231.46441704 520.04641682 242.60236638 520.04753201 253.74034824 C520.04848249 262.79468359 520.05259278 271.84901196 520.05893326 280.90334511 C520.0736803 302.40015429 520.08598297 323.89695661 520.08493614 345.39377117 C520.08490498 346.08102808 520.08487383 346.768285 520.08484173 347.47636788 C520.08467551 350.95952972 520.08447743 354.44269156 520.08427231 357.92585339 C520.08421247 358.96347179 520.08421247 358.96347179 520.08415143 360.02205218 C520.08407056 361.42093041 520.08398696 362.81980864 520.08390065 364.21868686 C520.08267543 385.97774241 520.09768389 407.73673561 520.12504578 429.49577332 C520.15578772 453.95271369 520.17295165 478.40960593 520.17111933 502.86656791 C520.1704555 515.81188878 520.17594472 528.75713933 520.19747543 541.70244408 C520.21569046 552.72480165 520.22003187 563.74705703 520.20645659 574.76942315 C520.19992856 580.39127555 520.199804 586.0129319 520.21716309 591.63476562 C520.23290584 596.7862072 520.23001764 601.93729748 520.21259482 607.08873055 C520.2095276 608.94739302 520.21314676 610.80608178 520.22431497 612.66471323 C520.32561957 630.72741503 516.81586601 645.28844475 504.16264343 658.77824402 C495.89825331 666.72629385 485.90274123 672.88259907 474.33842468 673.63371277 C471.31402398 673.89986027 471.31402398 673.89986027 468.71342468 675.13371277 C466.16035862 679.1962128 465.06248655 683.55954986 463.71342468 688.13371277 C462.26306633 691.2825171 460.56063304 694.2028837 458.71342468 697.13371277 C458.32026062 697.78597839 457.92709656 698.43824402 457.52201843 699.11027527 C450.34192855 709.86969353 437.92032215 717.50623563 425.71342468 721.13371277 C414.04478732 723.36047029 402.33163225 723.41741773 390.4985199 723.38095093 C388.6056806 723.38254267 386.71284187 723.38500988 384.8200047 723.38826734 C379.66141602 723.39463214 374.50290679 723.38865067 369.3443234 723.38050306 C363.76407209 723.37388753 358.18382912 723.37888295 352.60357666 723.38238525 C341.6876011 723.38741254 330.77165597 723.38180375 319.85568419 723.37253495 C307.12705479 723.36211827 294.39843186 723.36222203 281.669799 723.36270753 C258.2603643 723.36322269 234.85094779 723.35320295 211.44151941 723.33820509 C190.11076548 723.32458924 168.78002276 723.31834361 147.44926453 723.3190155 C146.08005308 723.31905591 144.71084164 723.31909627 143.34163019 723.31913658 C142.32622198 723.31916711 142.32622198 723.31916711 141.29030046 723.31919825 C137.88205471 723.31929906 134.47380896 723.31938964 131.0655632 723.3194685 C130.39304239 723.31948521 129.72052157 723.31950193 129.02762134 723.31951914 C107.32431261 723.31996374 85.62100583 723.31283682 63.91769867 723.30510565 C55.05976901 723.30209869 46.20184033 723.3010272 37.34391022 723.30057335 C26.53570492 723.29988855 15.72750846 723.29538716 4.9193069 723.28624054 C-0.58795971 723.28164867 -6.09521509 723.27856731 -11.60248375 723.27983475 C-16.65702367 723.28094151 -21.71153889 723.27734096 -26.76607367 723.27018622 C-28.58155074 723.26839474 -30.39703039 723.26822083 -32.21250752 723.26995351 C-41.52981388 723.27785213 -50.82080538 723.13528044 -60.12862778 722.69176197 C-60.95425074 722.65356597 -61.77987369 722.61536998 -62.63051553 722.57601653 C-78.81589767 721.72368137 -94.15927059 715.38239209 -105.81782532 703.96965027 C-117.65424603 690.37274926 -123.62754784 675.04825264 -123.54384422 657.03764629 C-123.5473503 656.0676296 -123.55085637 655.09761292 -123.55446869 654.09820178 C-123.5637482 650.85849056 -123.55886826 647.61896047 -123.55400085 644.37924194 C-123.55773883 642.0287387 -123.56234095 639.67823671 -123.5677315 637.32773668 C-123.57867763 631.55226552 -123.58033428 625.77684412 -123.57800979 620.00136427 C-123.57573244 613.08013993 -123.58502927 606.15894306 -123.59456853 599.23772665 C-123.61389288 584.88897925 -123.61953614 570.54024616 -123.62068264 556.19148728 C-123.62160228 545.11012145 -123.62572183 534.02876123 -123.63208389 522.94739723 C-123.63387902 519.75585074 -123.63565865 516.56430424 -123.63743365 513.37275773 C-123.63787574 512.57929863 -123.63831784 511.78583953 -123.63877333 510.96833621 C-123.65107855 488.65543902 -123.65897477 466.34254378 -123.65808678 444.02964306 C-123.65805562 443.18870071 -123.65802446 442.34775836 -123.65799236 441.48133291 C-123.65782615 437.2192316 -123.65762807 432.95713029 -123.65742294 428.69502898 C-123.65738305 427.84858234 -123.65734316 427.00213569 -123.65730206 426.13003915 C-123.65722119 424.41831894 -123.65713759 422.70659874 -123.65705128 420.99487854 C-123.6558257 394.36169143 -123.6708416 367.72855523 -123.69819641 341.09538269 C-123.72892703 311.163231 -123.74612836 281.23111276 -123.74426997 251.29894429 C-123.74412071 248.10645473 -123.74402329 244.91396517 -123.74396133 241.7214756 C-123.74393803 240.93542133 -123.74391472 240.14936706 -123.7438907 239.33949296 C-123.7438292 226.69871991 -123.75659198 214.05799114 -123.77382586 201.41723125 C-123.79079117 188.71057354 -123.79274911 176.00398049 -123.77960722 163.29731771 C-123.77287338 156.41575328 -123.77245363 149.53433494 -123.79031372 142.65278625 C-123.80602513 136.35048317 -123.80320008 130.04846762 -123.78574546 123.74617163 C-123.78267139 121.46899866 -123.78632318 119.19180433 -123.79746561 116.91465654 C-123.86154383 102.88768611 -123.78378425 89.8971842 -115.66157532 77.82121277 C-115.07118469 76.91757996 -114.48079407 76.01394714 -113.87251282 75.08293152 C-113.34915344 74.43968933 -112.82579407 73.79644714 -112.28657532 73.13371277 C-111.62657532 73.13371277 -110.96657532 73.13371277 -110.28657532 73.13371277 C-110.01845032 72.49433777 -109.75032532 71.85496277 -109.47407532 71.19621277 C-108.28657532 69.13371277 -108.28657532 69.13371277 -105.28657532 68.13371277 C-105.28657532 67.14371277 -105.28657532 66.15371277 -105.28657532 65.13371277 C-102.27008226 63.66627841 -99.24766481 62.21146174 -96.22407532 60.75871277 C-94.95273743 60.13996277 -94.95273743 60.13996277 -93.65571594 59.50871277 C-87.54416711 56.58272028 -82.1704356 54.13371277 -75.28657532 54.13371277 C-75.13962219 53.19011902 -74.99266907 52.24652527 -74.84126282 51.27433777 C-71.96915785 34.83401277 -64.95613699 21.09663867 -50.97407532 11.25871277 C-45.03223647 7.35807033 -38.93328534 4.59464342 -32.28657532 2.13371277 C-31.62657532 1.80371277 -30.96657532 1.47371277 -30.28657532 1.13371277 C-20.24904876 -0.15313419 -10.09980204 -0.01051224 0 0 Z M-21.31001282 53.91496277 C-21.75602844 54.48215027 -22.20204407 55.04933777 -22.66157532 55.63371277 C-23.12305969 56.20090027 -23.58454407 56.76808777 -24.06001282 57.35246277 C-28.49266749 63.78969376 -28.43392185 70.54862978 -28.41520977 78.10844898 C-28.41696281 79.00582536 -28.41871584 79.90320174 -28.420522 80.82777134 C-28.42518577 83.84438408 -28.42271552 86.86094871 -28.42028809 89.87756348 C-28.42215587 92.05834737 -28.42445644 94.23913092 -28.42715341 96.41991395 C-28.43328186 102.42041868 -28.43313658 108.42090949 -28.43195903 114.42141664 C-28.43175529 120.8898486 -28.43727124 127.35827606 -28.4420166 133.82670593 C-28.45054694 146.50233058 -28.45308467 159.17795127 -28.45362898 171.85357849 C-28.45408843 182.1546567 -28.4561463 192.45573341 -28.45932961 202.75681114 C-28.46022714 205.72142209 -28.46111696 208.68603305 -28.46200448 211.650644 C-28.46222553 212.38764406 -28.46244658 213.12464413 -28.46267433 213.88397752 C-28.46882892 234.61575056 -28.47277485 255.34752307 -28.47233105 276.07929707 C-28.47231547 276.86100708 -28.47229989 277.6427171 -28.47228384 278.44811529 C-28.47220073 282.41019324 -28.47210169 286.37227119 -28.47199913 290.33434913 C-28.47197919 291.1212394 -28.47195924 291.90812967 -28.47193869 292.7188651 C-28.47189825 294.31014903 -28.47185646 295.90143297 -28.4718133 297.49271691 C-28.4712005 322.25220512 -28.47870775 347.01167964 -28.49238586 371.77116394 C-28.50774494 399.5849458 -28.5163522 427.39871867 -28.51542264 455.21250504 C-28.51534801 458.17805906 -28.5152993 461.14361308 -28.51526833 464.1091671 C-28.51525667 464.83936789 -28.51524502 465.56956869 -28.51523301 466.32189678 C-28.51520223 478.07474516 -28.52158917 489.82758166 -28.53020059 501.58042651 C-28.53867559 513.3913232 -28.53949656 525.20220103 -28.53309127 537.01309911 C-28.52981975 543.41208848 -28.52979215 549.81103476 -28.53844452 556.21002007 C-28.54628249 562.06686657 -28.54490579 567.92363562 -28.53616039 573.78048017 C-28.53461943 575.90023193 -28.53646387 578.01998939 -28.54202046 580.13973442 C-28.54907207 583.0204012 -28.54379343 585.90079562 -28.53546429 588.78145313 C-28.54043247 589.60479366 -28.54540065 590.42813419 -28.55051938 591.27642444 C-28.48903429 601.33193193 -26.47205192 609.58593213 -19.49751282 617.04777527 C-6.71323571 629.01711838 9.75027433 628.43242483 26.21762085 628.39440918 C28.0818498 628.39743361 29.9460775 628.40132455 31.81030303 628.40600175 C36.90794667 628.4162523 42.00551974 628.41410748 47.10316908 628.40982115 C52.61034689 628.40734868 58.11750794 628.41637439 63.62467957 628.42385864 C74.40248415 628.43659167 85.18026381 628.4384012 95.95807465 628.43605838 C104.71724925 628.43427406 113.47641629 628.43602731 122.23558998 628.44028282 C123.48305352 628.44087801 124.73051705 628.4414732 126.01578251 628.44208642 C128.55007952 628.44329819 131.08437653 628.44451232 133.61867354 628.4457288 C150.62644475 628.45351226 167.63421325 628.45743765 184.64198589 628.45341206 C185.30643671 628.45325568 185.97088753 628.4530993 186.65547323 628.45293819 C190.02291538 628.45213245 193.39035751 628.45128667 196.75779965 628.45042489 C197.42654658 628.4502538 198.09529352 628.45008271 198.78430551 628.44990644 C200.13667047 628.44955978 201.48903543 628.44921125 202.84140039 628.44886085 C223.89617048 628.44350063 244.95089872 628.45144512 266.00566101 628.46989441 C289.67738009 628.49061268 313.34907912 628.50130668 337.02080947 628.49731892 C349.54898002 628.49540566 362.07711241 628.49790702 374.60527611 628.51203346 C385.26641985 628.52393332 395.92750193 628.52536754 406.58864649 628.5132433 C412.02772564 628.5073458 417.46669193 628.50627945 422.90576363 628.5182457 C427.88531625 628.52907382 432.86466137 628.52603774 437.84420417 628.51198401 C439.64480112 628.5093287 441.44541418 628.51172971 443.24599537 628.51971988 C455.00405764 628.56827266 465.04159954 628.59430769 474.05326843 620.01261902 C482.43078747 610.53123865 479.85002275 593.91032889 479.82263184 582.08624268 C479.82180088 580.1385461 479.82140284 578.19084931 479.82139891 576.24315256 C479.82007006 570.90542894 479.81238393 565.56773076 479.8035835 560.23001492 C479.79515119 554.46782959 479.79250406 548.70564096 479.78898621 542.94345093 C479.77915854 529.04013194 479.75952179 515.13683332 479.73872545 501.23352709 C479.72913308 494.68347121 479.72056473 488.13341399 479.71187401 481.58335686 C479.68258446 459.808517 479.65082763 438.03368317 479.61165333 416.25885868 C479.60913057 414.85219796 479.60660888 413.44553723 479.60408823 412.0388765 C479.60283801 411.34132852 479.60158779 410.64378054 479.60029969 409.92509474 C479.5939691 406.39119986 479.58765199 402.85730496 479.5813446 399.32341003 C479.58008991 398.6221115 479.57883522 397.92081296 479.57754251 397.19826295 C479.53694854 374.44913054 479.51188038 351.70001706 479.49586529 328.95085498 C479.47885916 304.88238184 479.44733706 280.81396992 479.39948195 256.7455377 C479.37377456 243.63153563 479.35460801 230.51759525 479.35210609 217.40356636 C479.34992527 206.24063873 479.33420344 195.07783411 479.3007736 183.91495449 C479.28413307 178.22044575 479.27392734 172.52611772 479.28108025 166.83158493 C479.2874788 161.61615221 479.27544078 156.40109543 479.24887534 151.18572944 C479.2424982 149.30160277 479.24281289 147.41743873 479.25059102 145.53331733 C479.29782317 132.9025151 478.64984988 122.34481077 470.46342468 112.00871277 C469.28779968 110.51791199 469.28779968 110.51791199 468.08842468 108.99699402 C463.20217501 103.10616999 458.13092206 97.53762424 452.71342468 92.13371277 C451.60194368 91.02253754 450.49062594 89.91119899 449.37944031 88.79972839 C448.77531311 88.1956012 448.17118591 87.591474 447.54875183 86.96903992 C440.04830424 79.46859233 432.54785665 71.96814473 425.04740906 64.46769714 C424.4767572 63.89736755 423.90610535 63.32703796 423.31816101 62.73942566 C421.85969923 61.28007633 420.40454016 59.81742819 418.94975281 58.35441589 C412.00088604 51.45410016 406.24861048 47.76148621 396.39322758 47.75339603 C395.68687236 47.74873612 394.98051714 47.7440762 394.25275722 47.73927507 C391.89180409 47.72734809 389.53142888 47.7367113 387.17047119 47.74603271 C385.45833564 47.74185879 383.74620285 47.73638095 382.0340752 47.7297129 C377.33362728 47.71524737 372.63335453 47.71950649 367.93289697 47.72687972 C362.86190984 47.73160631 357.79096089 47.71910606 352.71998596 47.7088623 C342.78738395 47.69165921 332.85484515 47.6908374 322.9222321 47.69607521 C314.84990131 47.7001152 306.77758922 47.69867538 298.70525932 47.69332695 C297.55674262 47.69257853 296.40822592 47.69183011 295.22490568 47.691059 C292.89176726 47.68952754 290.55862885 47.6879892 288.22549044 47.68644404 C266.34201565 47.67271362 244.4585766 47.67816058 222.57510262 47.68962925 C202.55085093 47.69956299 182.52669161 47.68661947 162.50245417 47.66269506 C141.94499871 47.63831847 121.38758631 47.62869259 100.83011669 47.63534778 C89.28725589 47.6388431 77.74446617 47.63658725 66.20161629 47.61909676 C56.37582967 47.60439284 46.55016416 47.60371569 36.72437996 47.62116767 C31.71072965 47.62969479 26.69729586 47.63178541 21.68365669 47.61651611 C17.09370962 47.60271017 12.50416542 47.60737937 7.9142419 47.62675535 C6.25415947 47.63052825 4.59404508 47.62755635 2.93399102 47.6171437 C-10.18047976 47.50419038 -10.18047976 47.50419038 -21.31001282 53.91496277 Z " fill="#828282" transform="translate(157.2865753173828,24.866287231445313)"/>
<path d="M0 0 C1.5817687 2.80814299 2.24991035 4.81901326 2.24905568 8.03705955 C2.25370256 8.83749566 2.25834944 9.63793178 2.26313713 10.46262354 C2.25805821 11.33795364 2.25297929 12.21328375 2.24774647 13.11513901 C2.25024455 14.05200824 2.25274263 14.98887746 2.25531641 15.95413667 C2.26130835 19.11725823 2.25297545 22.28018384 2.24482727 25.44329834 C2.24624876 27.72461238 2.24856048 30.00592602 2.25168961 32.28723836 C2.25781021 38.57520704 2.25153104 44.8631129 2.243379 51.15107703 C2.23748108 57.23053537 2.24097627 63.30998102 2.24445125 69.38943997 C2.25091457 81.06850538 2.25037206 92.74755759 2.2449007 104.4266231 C2.23622926 122.97629843 2.24497264 141.52593335 2.25924235 160.07560376 C2.2646636 167.2130673 2.26954782 174.35053125 2.27447033 181.48799515 C2.27502057 182.28103874 2.27557081 183.07408232 2.27613772 183.89115754 C2.28916001 202.7755814 2.29728683 221.66000635 2.3034668 240.54443359 C2.30387971 241.7840546 2.30387971 241.7840546 2.30430096 243.04871846 C2.31065765 262.31834837 2.31361664 281.58797426 2.30969238 300.85760498 C2.30952486 301.68564472 2.30935734 302.51368445 2.30918475 303.3668163 C2.30832688 307.54189113 2.30742863 311.71696594 2.30651542 315.89204076 C2.30624481 317.12969894 2.30624481 317.12969894 2.30596873 318.39236032 C2.30560296 320.05774859 2.30523385 321.72313687 2.3048614 323.38852514 C2.29880401 350.92579234 2.30959107 378.46301135 2.33934517 406.00026391 C2.3435302 409.89241055 2.34749446 413.78455739 2.35130882 417.67670441 C2.35206186 418.44268815 2.35281489 419.2086719 2.35359075 419.99786728 C2.36514335 432.30922379 2.35853802 444.62050657 2.34471958 456.93185803 C2.33112375 469.31670085 2.33534457 481.70143379 2.3576893 494.08626488 C2.36926873 500.79200038 2.37220258 507.49745045 2.35351372 514.20319176 C2.33654518 520.34867166 2.34276881 526.4936863 2.36701228 532.63913777 C2.37172161 534.85597593 2.36807965 537.07285188 2.35498682 539.28965637 C2.23149374 561.76192765 7.09892434 579.75505075 23.1875 596.25 C38.23672765 610.96480037 57.60548699 621.16805017 78.98663807 621.1386652 C79.78931967 621.14150742 80.59200127 621.14434964 81.41900656 621.14727798 C84.11942066 621.15562634 86.81979187 621.15689331 89.5202179 621.15821838 C91.47143998 621.16278363 93.42266109 621.1677836 95.37388104 621.17318195 C100.74412499 621.18677664 106.1143626 621.19418528 111.48461926 621.20060861 C117.27259575 621.20860669 123.06055902 621.22230651 128.848526 621.23532104 C138.87938842 621.25709218 148.91025217 621.27523435 158.94112587 621.29092598 C173.44416531 621.31361879 187.94719011 621.34176244 202.45021715 621.37124526 C225.97925595 621.4190164 249.50830115 621.46219911 273.03735352 621.50268555 C295.89640774 621.54202961 318.75545665 621.58345073 341.61450195 621.62768555 C342.31903871 621.62904808 343.02357547 621.63041061 343.74946183 621.63181442 C350.82466857 621.64549972 357.89987523 621.65922727 364.97508183 621.67298577 C379.38826921 621.70101279 393.80145713 621.72875784 408.21464539 621.7563324 C409.20870187 621.7582347 409.20870187 621.7582347 410.2228403 621.76017542 C454.48188491 621.84484041 498.74094163 621.92291157 543 622 C542.70316826 623.59386148 542.40022084 625.18658475 542.09472656 626.77880859 C541.92668518 627.66587494 541.7586438 628.55294128 541.58551025 629.46688843 C540.26759615 635.16862201 536.99926827 640.04163523 534 645 C533.55914063 645.74378906 533.11828125 646.48757813 532.6640625 647.25390625 C525.59217991 657.86173014 512.99316664 665.43603644 501 669 C489.33136264 671.22675752 477.61820756 671.28370496 465.78509521 671.24723816 C463.89225591 671.2488299 461.99941719 671.25129711 460.10658002 671.25455457 C454.94799134 671.26091937 449.78948211 671.2549379 444.63089871 671.24679029 C439.05064741 671.24017476 433.47040443 671.24517018 427.89015198 671.24867249 C416.97417642 671.25369977 406.05823129 671.24809098 395.14225951 671.23882218 C382.41363011 671.2284055 369.68500718 671.22850926 356.95637432 671.22899476 C333.54693962 671.22950992 310.13752311 671.21949018 286.72809473 671.20449232 C265.3973408 671.19087647 244.06659808 671.18463084 222.73583984 671.18530273 C221.3666284 671.18534315 219.99741695 671.18538351 218.62820551 671.18542381 C217.61279729 671.18545434 217.61279729 671.18545434 216.57687578 671.18548548 C213.16863003 671.18558629 209.76038427 671.18567687 206.35213852 671.18575573 C205.67961771 671.18577244 205.00709689 671.18578916 204.31419666 671.18580638 C182.61088793 671.18625097 160.90758114 671.17912406 139.20427398 671.17139288 C130.34634433 671.16838593 121.48841564 671.16731443 112.63048553 671.16686058 C101.82228024 671.16617578 91.01408377 671.16167439 80.20588222 671.15252777 C74.69861561 671.14793591 69.19136022 671.14485454 63.68409157 671.14612198 C58.62955164 671.14722874 53.57503643 671.14362819 48.52050164 671.13647345 C46.70502458 671.13468197 44.88954492 671.13450806 43.0740678 671.13624074 C33.75676144 671.14413936 24.46576993 671.00156767 15.15794754 670.5580492 C14.33232458 670.51985321 13.50670162 670.48165721 12.65605979 670.44230376 C-3.52932235 669.5899686 -18.87269528 663.24867932 -30.53125 651.8359375 C-42.36767071 638.2390365 -48.34097252 622.91453987 -48.25726891 604.90393353 C-48.26077498 603.93391684 -48.26428105 602.96390015 -48.26789337 601.96448901 C-48.27717288 598.7247778 -48.27229294 595.4852477 -48.26742554 592.24552917 C-48.27116352 589.89502594 -48.27576563 587.54452394 -48.28115618 585.19402391 C-48.29210232 579.41855275 -48.29375896 573.64313135 -48.29143447 567.8676515 C-48.28915712 560.94642716 -48.29845395 554.02523029 -48.30799321 547.10401388 C-48.32731757 532.75526648 -48.33296083 518.40653339 -48.33410732 504.05777451 C-48.33502696 492.97640869 -48.33914651 481.89504846 -48.34550858 470.81368446 C-48.3473037 467.62213797 -48.34908333 464.43059147 -48.35085833 461.23904496 C-48.35130043 460.44558586 -48.35174252 459.65212676 -48.35219802 458.83462344 C-48.36450323 436.52172626 -48.37239946 414.20883102 -48.37151146 391.89593029 C-48.3714803 391.05498794 -48.37144914 390.21404559 -48.37141704 389.34762014 C-48.37125083 385.08551883 -48.37105275 380.82341752 -48.37084763 376.56131621 C-48.37080774 375.71486957 -48.37076785 374.86842292 -48.37072675 373.99632638 C-48.37064587 372.28460618 -48.37056228 370.57288597 -48.37047596 368.86116577 C-48.36925038 342.22797866 -48.38426628 315.59484247 -48.41162109 288.96166992 C-48.44235171 259.02951823 -48.45955304 229.09739999 -48.45769465 199.16523153 C-48.45754539 195.97274196 -48.45744798 192.7802524 -48.45738602 189.58776283 C-48.45736271 188.80170856 -48.4573394 188.01565429 -48.45731538 187.20578019 C-48.45725388 174.56500715 -48.47001667 161.92427837 -48.48725055 149.28351848 C-48.50421586 136.57686077 -48.5061738 123.87026772 -48.4930319 111.16360494 C-48.48629806 104.28204051 -48.48587831 97.40062218 -48.5037384 90.51907349 C-48.51944981 84.21677041 -48.51662476 77.91475485 -48.49917014 71.61245886 C-48.49609607 69.33528589 -48.49974786 67.05809156 -48.51089029 64.78094377 C-48.57496851 50.75397334 -48.49720894 37.76347144 -40.375 25.6875 C-39.78460938 24.78386719 -39.19421875 23.88023438 -38.5859375 22.94921875 C-38.06257813 22.30597656 -37.53921875 21.66273437 -37 21 C-36.34 21 -35.68 21 -35 21 C-34.731875 20.360625 -34.46375 19.72125 -34.1875 19.0625 C-33 17 -33 17 -30 16 C-30 15.01 -30 14.02 -30 13 C-26.98350694 11.53256564 -23.96108949 10.07774897 -20.9375 8.625 C-20.08994141 8.2125 -19.24238281 7.8 -18.36914062 7.375 C-12.2575918 4.44900751 -6.88386029 2 0 2 C0 1.34 0 0.68 0 0 Z " fill="#B7B7B7" transform="translate(82,77)"/>
<path d="M0 0 C1.63719782 0.21969314 3.28071702 0.39315066 4.92578125 0.54296875 C35.87959194 3.62260726 66.3403637 13.45337684 91 33 C90.41350227 37.18926949 88.99606764 40.02141502 86.8125 43.625 C83.83455919 48.61212823 81.10566218 53.69791817 78.49609375 58.88671875 C78.18899979 59.49390747 77.88190582 60.10109619 77.56550598 60.72668457 C76.31113684 63.20762553 75.05716512 65.68826877 73.82974243 68.18267822 C72.95595343 69.95725541 72.06422583 71.72296501 71.171875 73.48828125 C70.6572168 74.52509033 70.14255859 75.56189941 69.61230469 76.63012695 C68 79 68 79 65.94140625 79.93017578 C62.89871252 80.03960868 61.5630474 78.46250322 59.25 76.5625 C35.90719605 58.80706934 5.43296397 52.80480567 -23.31640625 56.62109375 C-50.62397056 61.04128801 -75.34097073 76.42446503 -91.8984375 98.53515625 C-95.22977944 103.19481808 -98.32673658 107.93133926 -101 113 C-101.53496094 113.96035156 -102.06992188 114.92070312 -102.62109375 115.91015625 C-116.4150573 141.74788152 -118.63046856 172.6800005 -110.23510742 200.63037109 C-105.1162412 216.45364184 -96.43816558 230.84291891 -84.94140625 242.78515625 C-83 245 -83 245 -83 247 C-82.39800781 247.268125 -81.79601562 247.53625 -81.17578125 247.8125 C-78.96048929 249.02156419 -77.8316017 250.11585039 -76.1875 252 C-62.18150253 266.27249636 -38.22620197 278.63122268 -18.046875 279.08984375 C-16.53867187 279.04537109 -16.53867187 279.04537109 -15 279 C-15 279.66 -15 280.32 -15 281 C0.39802316 280.55400291 0.39802316 280.55400291 15.625 278.40234375 C18.12741394 277.97841507 20.46671394 277.97291025 23 278 C14.14201656 259.13544141 4.81064976 240.51324556 -4.53429222 221.88681602 C-7.28081582 216.41234047 -10.02366594 210.93602936 -12.76594543 205.45942688 C-20.55387201 189.90753026 -28.3467664 174.35812565 -36.14282227 158.81030273 C-40.47068851 150.17907653 -44.79570303 141.5464274 -49.11763841 132.91222984 C-51.84484053 127.46436756 -54.57563592 122.01832653 -57.30910814 116.5736078 C-58.99856939 113.20637091 -60.68471754 109.83748353 -62.36990738 106.46810722 C-63.15382423 104.90242896 -63.93912635 103.33744344 -64.72588158 101.77318954 C-65.79526748 99.64652195 -66.85976175 97.51747753 -67.92301941 95.38774109 C-68.2384648 94.76335811 -68.55391019 94.13897513 -68.87891454 93.49567145 C-71 89.22821773 -71 89.22821773 -71 87 C-71.66 86.67 -72.32 86.34 -73 86 C-70.42928857 84.71464428 -68.51429895 84.82567272 -65.63574219 84.76293945 C-64.51407654 84.73653885 -63.39241089 84.71013824 -62.23675537 84.68293762 C-60.41026459 84.64845772 -60.41026459 84.64845772 -58.546875 84.61328125 C-57.29876038 84.58775681 -56.05064575 84.56223236 -54.76470947 84.53593445 C-52.11837926 84.48384369 -49.47210658 84.43402361 -46.82568359 84.38745117 C-43.44510725 84.32726287 -40.06500314 84.25299933 -36.68479538 84.17507648 C-33.45149832 84.10335589 -30.2179339 84.04679349 -26.984375 83.98828125 C-25.1700296 83.94469231 -25.1700296 83.94469231 -23.31903076 83.90022278 C-21.61761932 83.87480659 -21.61761932 83.87480659 -19.88183594 83.84887695 C-18.39197174 83.82009209 -18.39197174 83.82009209 -16.87200928 83.79072571 C-13.62449719 84.02736171 -11.01464547 84.7850984 -8 86 C-6.64233398 87.671875 -6.64233398 87.671875 -5.74609375 89.75 C-5.37742187 90.5646875 -5.00875 91.379375 -4.62890625 92.21875 C-4.23574219 93.1365625 -3.84257812 94.054375 -3.4375 95 C-2.49345423 97.08568252 -1.54372773 99.16879858 -0.58984375 101.25 C-0.04183105 102.45011719 0.50618164 103.65023437 1.07080078 104.88671875 C5.00219081 113.35842205 9.29627292 121.6613631 13.5 130 C18.78509858 140.4860337 24.01900844 150.98734177 29.05078125 161.59765625 C36.30856926 176.87934544 43.93330628 191.97955748 51.51641846 207.10150146 C53.49619289 211.05062883 55.47356547 215.00095851 57.45117188 218.95117188 C61.29850071 226.63525851 65.14838096 234.31806292 69 242 C69 241.34 69 240.68 69 240 C69.99 239.67 70.98 239.34 72 239 C73.58013007 236.34060841 74.98881883 233.71882881 76.359375 230.953125 C76.9914109 229.70763382 76.9914109 229.70763382 77.63621521 228.4369812 C79.0164679 225.71242871 80.3830663 222.9812554 81.75 220.25 C82.69984576 218.37038383 83.65077981 216.49131724 84.6027832 214.61279297 C86.51252265 210.84301738 88.41816467 207.07121685 90.32080078 203.29785156 C93.89634335 196.21600018 97.5347001 189.16722611 101.1875 182.125 C101.79424561 180.95308105 102.40099121 179.78116211 103.02612305 178.57373047 C106.7306 171.42538787 110.46391492 164.29283454 114.2253418 157.17431641 C118.46682953 149.13882533 122.63677493 141.06637713 126.81298828 132.99682617 C130.68684618 125.51672983 134.58453967 118.05005552 138.54101562 110.61328125 C142.15121605 103.79764066 145.54662464 96.90675072 149 90 C170.12 90 191.24 90 213 90 C203.87867647 108.24264706 203.87867647 108.24264706 199.375 116.8125 C198.34081208 118.78758569 197.30697288 120.76285401 196.2734375 122.73828125 C195.47437988 124.26509521 195.47437988 124.26509521 194.65917969 125.82275391 C191.75972648 131.37506174 188.88062976 136.9379098 186 142.5 C181.70082669 150.79867705 177.39087776 159.09151875 173.0625 167.375 C168.54060848 176.0303904 164.04602238 184.69969617 159.5625 193.375 C150.66812067 210.5835303 141.7668174 227.78842776 132.72607422 244.9206543 C130.55277907 249.04120448 128.39008887 253.16692938 126.2421875 257.30078125 C120.4648017 268.41871422 114.60766714 279.48957669 108.67089844 290.52322388 C103.37109434 300.37830839 98.2025655 310.29655644 93.07666016 320.2434082 C88.83593759 328.44870483 84.45400316 336.56781081 80.00219727 344.66015625 C76.50424923 351.03118315 73.15118935 357.4488432 70 364 C66.5936019 362.61247428 65.28844765 361.33338921 63.6328125 358.0703125 C63.22466309 357.28003662 62.81651367 356.48976074 62.39599609 355.67553711 C61.76685303 354.41302124 61.76685303 354.41302124 61.125 353.125 C60.68881348 352.27107666 60.25262695 351.41715332 59.80322266 350.53735352 C58.93061697 348.82493351 58.06317799 347.10986992 57.20117188 345.39208984 C56.15199365 343.30268979 55.08855351 341.22179668 54.015625 339.14453125 C50 331.29494048 50 331.29494048 50 329 C49.05640625 329.26554687 48.1128125 329.53109375 47.140625 329.8046875 C23.49940915 336.35362941 -9.4985351 341.41965762 -33.3359375 332.94140625 C-36.19075773 331.93259148 -39.0667979 331.12103832 -41.98217773 330.30859375 C-66.86838907 323.29979029 -88.85492399 311.71250086 -107.80859375 294.0390625 C-109.82325574 292.16445723 -111.89235672 290.39324148 -114 288.625 C-139.92608528 265.80383511 -161.36952111 228.18636326 -165.25 193.71679688 C-165.6590833 189.73284279 -165.6590833 189.73284279 -167 186 C-167.1104335 183.74158844 -167.1544962 181.47981984 -167.16796875 179.21875 C-167.17224884 178.53773727 -167.17652893 177.85672455 -167.18093872 177.15507507 C-167.19098161 174.93665082 -167.19098217 172.71844282 -167.1875 170.5 C-167.18656342 169.74602936 -167.18562683 168.99205872 -167.18466187 168.21524048 C-167.07174957 126.50944406 -154.61195175 91.07271504 -128.1796875 58.671875 C-126.80782224 57.06867114 -126.80782224 57.06867114 -127 55 C-125.33669579 53.99441714 -123.6693538 52.99550775 -122 52 C-120.47942682 50.54199066 -119.00265372 49.03749513 -117.5625 47.5 C-88.96768938 18.39683719 -50.56900656 2.77042603 -10.32128906 0.19335938 C-7.78613336 0.01619273 -7.78613336 0.01619273 -4.4609375 -0.609375 C-2 -1 -2 -1 0 0 Z " fill="#838382" transform="translate(355,195)"/>
<path d="M0 0 C155.43 0 310.86 0 471 0 C471 0.66 471 1.32 471 2 C467.16489078 3.2391354 463.34591766 3.13995102 459.36178207 3.12863445 C458.58459995 3.13038749 457.80741782 3.13214053 457.00668472 3.13394669 C454.38690552 3.13862068 451.76718147 3.13613759 449.1473999 3.13371277 C447.25636539 3.13558004 445.36533127 3.13788041 443.47429776 3.14057809 C438.2654533 3.14671294 433.05662485 3.14656052 427.84777761 3.14538372 C422.23482466 3.14518013 416.62187693 3.15069444 411.00892639 3.15544128 C400.00711069 3.16375779 389.00530035 3.16649658 378.00348178 3.16705366 C369.0624731 3.16752838 360.12146619 3.16958092 351.18045807 3.17275429 C329.96946083 3.18012961 308.75846486 3.18627881 287.54746628 3.18575573 C286.86889923 3.18574015 286.19033218 3.18572457 285.4912025 3.18570852 C282.05185338 3.18562541 278.61250427 3.18552637 275.17315516 3.18542381 C274.49007479 3.18540387 273.80699442 3.18538392 273.10321465 3.18536337 C271.72185871 3.18532294 270.34050277 3.18528114 268.95914683 3.18523798 C247.46933982 3.18462528 225.97954859 3.19213029 204.48974609 3.20581055 C180.35187947 3.22117017 156.21402592 3.22976416 132.07615304 3.22884732 C119.2935974 3.22851503 106.51105956 3.23127635 93.728508 3.24202538 C82.84500545 3.2511186 71.96152876 3.25331535 61.07802406 3.24651595 C55.52370623 3.2432447 49.96943804 3.24321586 44.41512489 3.2518692 C39.33110686 3.25970846 34.24717805 3.25832916 29.16316226 3.24958507 C27.32331277 3.24804439 25.48345672 3.24988754 23.64361498 3.25544515 C21.14282944 3.26249929 18.6423574 3.25721626 16.14158249 3.24888897 C15.42734743 3.25385715 14.71311237 3.25882533 13.97723383 3.26394406 C8.99854792 3.22889726 4.75578009 2.34104802 0 1 C0 0.67 0 0.34 0 0 Z " fill="#B0B0AF" transform="translate(100,745)"/>
<path d="M0 0 C0.33 0 0.66 0 1 0 C2.06179499 26.32510794 2.12882411 52.62658137 2.08674753 78.96972895 C2.07818992 85.06344504 2.07569922 91.15716417 2.07249451 97.25088501 C2.06624462 107.77124956 2.05654302 118.2916067 2.04459953 128.81196594 C2.02662726 144.73666864 2.01732945 160.66137033 2.00970889 176.5860809 C2.00660232 182.99920814 2.00321961 189.41233524 1.99983311 195.82546234 C1.99945834 196.5374873 1.99908357 197.24951226 1.99869744 197.98311374 C1.98976063 214.86146534 1.97809144 231.73981477 1.96557617 248.61816406 C1.96503177 249.35507333 1.96448736 250.0919826 1.96392646 250.85122245 C1.95117898 268.07566184 1.9371434 285.30009962 1.92095947 302.52453613 C1.92026228 303.26762122 1.9195651 304.01070631 1.91884678 304.77630913 C1.91532834 308.52459326 1.91180158 312.27287738 1.9082749 316.0211615 C1.90757811 316.7621628 1.90688133 317.50316411 1.90616344 318.26662 C1.9047567 319.76227692 1.90334843 321.25793383 1.90193863 322.75359074 C1.87869088 347.46200877 1.8622385 372.17042412 1.85326203 396.87885158 C1.85198562 400.3659253 1.85061688 403.85299898 1.84918404 407.34007263 C1.84876202 408.36927351 1.84876202 408.36927351 1.84833147 409.41926633 C1.84358019 420.44815528 1.83142783 431.47702422 1.81629714 442.50590331 C1.80122835 453.57304131 1.79337335 464.64016944 1.79251044 475.70731872 C1.79180589 481.69942198 1.78779619 487.6914763 1.7750473 493.68356705 C1.76344042 499.16739703 1.76104654 504.65115083 1.76598949 510.13499016 C1.76614082 512.11867583 1.76289522 514.10236526 1.75591242 516.08603865 C1.74690929 518.78280748 1.75028655 521.47929353 1.75669765 524.17606354 C1.75115778 524.94516017 1.74561791 525.7142568 1.73991016 526.50665939 C1.796532 536.23867848 3.85066581 544.43974637 10.56640625 551.69140625 C22.15154701 562.41639735 37.8185318 562.27976374 52.75 562.625 C54.14064609 562.66330444 55.53127162 562.70236271 56.921875 562.7421875 C60.28112457 562.83549999 63.64038202 562.92128895 67 563 C67 563.33 67 563.66 67 564 C61.91376878 564.07478624 56.82786558 564.12889926 51.74121094 564.16479492 C50.01491716 564.17977675 48.28866074 564.20016939 46.5625 564.22631836 C31.14380081 564.45385125 20.11511324 563.10232288 8.1875 552.5 C1.85109001 545.25838859 -0.28578806 539.44188119 -0.40939331 530.06057739 C-0.42844199 529.14795096 -0.44749068 528.23532453 -0.46711659 527.29504275 C-0.52775829 524.19564893 -0.57285655 521.09625661 -0.61669922 517.99658203 C-0.65464697 515.73182182 -0.69262648 513.46706213 -0.73063469 511.20230293 C-1.20790321 480.51697753 -1.14679348 449.82534546 -1.13530136 419.137205 C-1.13297074 412.7514538 -1.13274797 406.36570527 -1.13381577 399.97995377 C-1.133969 399.052267 -1.13412223 398.12458023 -1.13428011 397.16878174 C-1.13460006 395.28001816 -1.13492428 393.39125459 -1.1352527 391.50249101 C-1.13808253 373.9117291 -1.13486731 356.32097244 -1.12945233 338.73021139 C-1.12505094 323.98582829 -1.12575333 309.24145324 -1.13037109 294.49707031 C-1.15692784 207.43569508 -1.03046753 120.38053373 0 0 Z " fill="#515252" transform="translate(128,90)"/>
<path d="M0 0 C0.66 0.33 1.32 0.66 2 1 C-13.8543653 12.24423071 -28.41861176 13.30569329 -47.3528595 13.21600342 C-49.30925727 13.21417482 -51.26565604 13.21322854 -53.22205466 13.21308351 C-58.57441631 13.21011789 -63.92667773 13.19458488 -69.27900827 13.17690635 C-75.06016085 13.16000983 -80.84132584 13.15479254 -86.62249756 13.14805603 C-97.93706923 13.13297802 -109.25159045 13.10697525 -120.56613157 13.07704034 C-129.76009786 13.05291665 -138.95406492 13.03276706 -148.14804649 13.01544952 C-149.45714542 13.01298063 -150.76624435 13.01051173 -152.11501294 13.00796802 C-154.7744554 13.0029701 -157.43389787 12.99798153 -160.09334036 12.99300221 C-184.30815278 12.94741734 -208.52292645 12.89003602 -232.73770171 12.82804428 C-254.83968843 12.77153428 -276.94167403 12.72539268 -299.04370117 12.68798828 C-323.88809972 12.64590605 -348.73247181 12.59738449 -373.57683676 12.53855062 C-376.22490194 12.53229688 -378.87296712 12.52605116 -381.52103233 12.51981354 C-382.82393165 12.51674088 -384.12683097 12.51366821 -385.46921209 12.51050244 C-394.65580379 12.48927905 -403.84239726 12.47265161 -413.02900124 12.45778656 C-424.2186809 12.43955263 -435.40831787 12.41425535 -446.59795997 12.37985936 C-452.30814179 12.3624842 -458.01828428 12.3483034 -463.72849083 12.34270287 C-468.95340632 12.33748733 -474.17821336 12.32313845 -479.40308567 12.30144015 C-481.29515915 12.2951908 -483.18724726 12.29230251 -485.0793309 12.29307875 C-487.64807033 12.29363308 -490.21647773 12.28199776 -492.78516865 12.26729965 C-493.52220478 12.27037764 -494.2592409 12.27345563 -495.01861146 12.27662688 C-499.735332 12.2326433 -503.5652507 11.46008864 -508 10 C-508 9.67 -508 9.34 -508 9 C-506.97098664 9.00227832 -505.94197328 9.00455664 -504.8817777 9.00690401 C-459.51317912 9.10695808 -414.14457207 9.19951909 -368.77589417 9.25405884 C-368.08860336 9.25488718 -367.40131256 9.25571552 -366.69319476 9.25656897 C-351.75508117 9.27452808 -336.81696637 9.29114893 -321.87884977 9.30639198 C-314.55277783 9.31387574 -307.22670623 9.32165509 -299.90063477 9.32958984 C-298.80710973 9.33076668 -298.80710973 9.33076668 -297.69149328 9.33196728 C-274.07890894 9.35751718 -250.46641099 9.40257138 -226.85387894 9.45778332 C-202.58084896 9.51443634 -178.30786674 9.55132596 -154.03477176 9.56348994 C-150.60323438 9.56521877 -147.17169716 9.56717259 -143.74015999 9.56926346 C-142.72713613 9.56987027 -142.72713613 9.56987027 -141.69364714 9.57048933 C-130.83980846 9.57756866 -119.98611784 9.60536717 -109.13233944 9.6409922 C-98.21002437 9.67639718 -87.28786243 9.68930323 -76.36549275 9.68100826 C-70.45171125 9.67716901 -64.53836288 9.68301368 -58.62465858 9.71523285 C-53.20375559 9.74455063 -47.78357473 9.74582847 -42.36263765 9.72539337 C-40.40812952 9.72286985 -38.45357531 9.73038022 -36.49915712 9.74929909 C-23.15248393 9.87091688 -10.80198989 8.8274675 0 0 Z " fill="#7C7C7C" transform="translate(654,687)"/>
<path d="M0 0 C2.06673684 -0.00133784 4.13347345 -0.00309771 6.20020962 -0.00524139 C11.81129844 -0.00973671 17.42236912 -0.00793961 23.03345823 -0.00482988 C27.80260414 -0.00292301 32.57174627 -0.00453532 37.34089208 -0.00616682 C50.11919207 -0.01051531 62.89748087 -0.00762704 75.67577958 -0.00117052 C84.96100783 0.00348446 94.24623432 0.00587478 103.53146362 0.00708008 C187.75557021 0.02013824 271.97341936 0.30933881 356.19360352 1.12939453 C356.19360352 1.45939453 356.19360352 1.78939453 356.19360352 2.12939453 C301.53752873 2.93394374 246.88200439 3.26720124 192.22094727 3.44580078 C191.39424327 3.44850949 190.56753928 3.4512182 189.71578366 3.454009 C168.42135565 3.52362423 147.12690929 3.58641244 125.83245337 3.64680326 C113.47504832 3.68191311 101.11764981 3.71888985 88.76025391 3.75708008 C87.87857664 3.75980435 86.99689937 3.76252862 86.0885046 3.76533545 C81.6614174 3.77902399 77.23433029 3.79274246 72.80724323 3.80647576 C36.60270988 3.91874802 0.39816295 4.02589442 -35.80639648 4.12939453 C-35.80639648 3.13939453 -35.80639648 2.14939453 -35.80639648 1.12939453 C-23.85799487 0.12563572 -11.98438894 -0.0134123 0 0 Z " fill="#5E605F" transform="translate(160.806396484375,24.87060546875)"/>
<path d="M0 0 C0.66 0 1.32 0 2 0 C0.58827889 4.63819553 -1.32229796 8.85343931 -3.5625 13.13671875 C-3.90988724 13.80920151 -4.25727448 14.48168427 -4.6151886 15.17454529 C-5.73923049 17.34775131 -6.86947193 19.51766217 -8 21.6875 C-8.78050596 23.19303392 -9.56069647 24.69873142 -10.34057617 26.20458984 C-15.06807021 35.32416322 -19.82760652 44.42687324 -24.62890625 53.5078125 C-32.98054952 69.30859981 -41.18152947 85.18950845 -49.40234375 101.05859375 C-51.84930819 105.78180417 -54.30012767 110.50298455 -56.75390625 115.22265625 C-65.50288967 132.04732746 -65.50288967 132.04732746 -74 149 C-77.52656077 147.82447974 -77.91673107 146.74287867 -79.52394104 143.54412842 C-79.82670456 142.91597229 -80.12946808 142.28781616 -80.44140625 141.640625 C-80.76531845 140.98846008 -81.08923065 140.33629517 -81.42295837 139.66436768 C-82.47931281 137.53094196 -83.52102776 135.3907248 -84.5625 133.25 C-85.28702341 131.77893366 -86.01228714 130.30823171 -86.73828125 128.83789062 C-91.08543798 120.01272019 -95.38151327 111.16067698 -99.55297852 102.25097656 C-104.46911226 91.76599228 -109.74216424 81.4533091 -115.00759888 71.140625 C-116.88831537 67.45309644 -118.76004682 63.76104425 -120.63061523 60.06835938 C-121.59718907 58.1658652 -122.56799776 56.26551747 -123.54272461 54.3671875 C-124.96807871 51.58887073 -126.378045 48.80321567 -127.78515625 46.015625 C-128.22457047 45.16776428 -128.66398468 44.31990356 -129.11671448 43.4463501 C-129.51140427 42.65742371 -129.90609406 41.86849731 -130.31274414 41.05566406 C-130.66389786 40.3666803 -131.01505157 39.67769653 -131.37684631 38.96783447 C-132.12648665 36.60057239 -131.80231263 35.31439058 -131 33 C-130.70867187 33.61294922 -130.41734375 34.22589844 -130.1171875 34.85742188 C-128.74641695 37.73905745 -127.37320758 40.619525 -126 43.5 C-125.54238281 44.46292969 -125.08476562 45.42585938 -124.61328125 46.41796875 C-121.91039171 52.08292901 -119.15522958 57.71925084 -116.34179688 63.33007812 C-115.62970558 64.75223071 -114.91762926 66.17439079 -114.20556641 67.59655762 C-113.84090271 68.32451035 -113.47623901 69.05246307 -113.1005249 69.80247498 C-111.32758496 73.34267647 -109.55745759 76.88428321 -107.78710938 80.42578125 C-107.05970675 81.88062242 -106.33228951 83.33545628 -105.6048584 84.7902832 C-95.73657227 104.52685547 -85.86828613 124.26342773 -76 144 C-76 143.34 -76 142.68 -76 142 C-75.01 141.67 -74.02 141.34 -73 141 C-71.41986993 138.34060841 -70.01118117 135.71882881 -68.640625 132.953125 C-68.21926773 132.12279755 -67.79791046 131.29247009 -67.36378479 130.4369812 C-65.9835321 127.71242871 -64.6169337 124.9812554 -63.25 122.25 C-62.30015424 120.37038383 -61.34922019 118.49131724 -60.3972168 116.61279297 C-58.48747735 112.84301738 -56.58183533 109.07121685 -54.67919922 105.29785156 C-51.10365665 98.21600018 -47.4652999 91.16722611 -43.8125 84.125 C-43.20575439 82.95308105 -42.59900879 81.78116211 -41.97387695 80.57373047 C-38.2694 73.42538787 -34.53608508 66.29283454 -30.7746582 59.17431641 C-26.53622716 51.14461622 -22.36956626 43.0778481 -18.19580078 35.0144043 C-14.19803249 27.29610927 -10.17288063 19.59301672 -6.10742188 11.91015625 C-4.02139705 7.96381959 -1.9788542 4.00168295 0 0 Z " fill="#5D5E5D" transform="translate(500,293)"/>
<path d="M0 0 C23.65298593 -0.02339215 47.30597012 -0.04101017 70.9589653 -0.05181217 C81.94221128 -0.05696172 92.92545005 -0.06397882 103.90869141 -0.07543945 C113.48509674 -0.08542731 123.06149686 -0.09186318 132.63790727 -0.09408849 C137.70540656 -0.09538864 142.77289094 -0.0984303 147.84038544 -0.10573006 C152.6173437 -0.11255506 157.39428099 -0.11460385 162.17124367 -0.11310768 C163.91744158 -0.11338111 165.66364024 -0.11534758 167.40983391 -0.11920547 C189.08041606 -0.16470418 189.08041606 -0.16470418 195 1 C195.33 1.66 195.66 2.32 196 3 C149.14 3 102.28 3 54 3 C54 2.67 54 2.34 54 2 C36.18 1.67 18.36 1.34 0 1 C0 0.67 0 0.34 0 0 Z " fill="#7D7E7D" transform="translate(374,25)"/>
<path d="M0 0 C1.79652596 3.0517406 2.52931315 6.08277336 3.24121094 9.53222656 C7.42029247 29.71435554 16.66925119 49.28997342 31.76171875 63.6796875 C33 65 33 65 33 67 C33.60199219 67.268125 34.20398438 67.53625 34.82421875 67.8125 C37.03951071 69.02156419 38.1683983 70.11585039 39.8125 72 C54.59715735 87.06597219 75.890531 95.21889566 96 100 C96 100.33 96 100.66 96 101 C77.00400441 102.76706936 55.19072497 87.96156383 41.12011719 76.46386719 C27.88549886 65.24488613 18.10198457 52.2584286 10 37 C9.52949219 36.19691406 9.05898437 35.39382813 8.57421875 34.56640625 C5.51354543 29.09888765 3.81736842 23.3911574 2.1875 17.375 C1.96811768 16.57489502 1.74873535 15.77479004 1.52270508 14.95043945 C0.21215326 9.82621889 -0.21171289 5.28677334 0 0 Z " fill="#5C5C5C" transform="translate(239,375)"/>
<path d="M0 0 C1.63719782 0.21969314 3.28071702 0.39315066 4.92578125 0.54296875 C35.40144894 3.57503613 65.39225748 13.19654073 90 32 C89.505 32.99 89.505 32.99 89 34 C88.175 33.443125 87.35 32.88625 86.5 32.3125 C62.19657567 16.15419983 33.39211661 3.79257591 3.8203125 3.8671875 C2.96750702 3.86623077 2.11470154 3.86527405 1.23605347 3.86428833 C-0.55731277 3.86361181 -2.35068152 3.865429 -4.14404297 3.86962891 C-6.86040872 3.8749713 -9.57660815 3.86967269 -12.29296875 3.86328125 C-14.04687536 3.86394238 -15.80078187 3.86522427 -17.5546875 3.8671875 C-18.35292938 3.86516327 -19.15117126 3.86313904 -19.97360229 3.86105347 C-25.69752327 3.88435685 -31.31504344 4.34406865 -37 5 C-33.09458933 1.09458933 -26.32963967 1.62818189 -21 1 C-20.17935059 0.90154785 -19.35870117 0.8030957 -18.51318359 0.70166016 C-15.92646268 0.39553646 -13.33869003 0.10147005 -10.75 -0.1875 C-9.49908569 -0.33155273 -9.49908569 -0.33155273 -8.22290039 -0.47851562 C-2.23389408 -1.11694704 -2.23389408 -1.11694704 0 0 Z " fill="#5B5B5A" transform="translate(355,195)"/>
<path d="M0 0 C1 3 1 3 -0.4753418 6.35058594 C-1.20619501 7.73408083 -1.94831586 9.11165894 -2.69921875 10.484375 C-3.09067581 11.21819397 -3.48213287 11.95201294 -3.88545227 12.70806885 C-5.14343249 15.06054415 -6.41533978 17.40516812 -7.6875 19.75 C-8.52629128 21.31462166 -9.36419254 22.87972081 -10.20117188 24.4453125 C-13.72069816 31.01161561 -17.2815707 37.54386071 -21 44 C-24.96180471 43.40339882 -27.29817808 41.40139366 -30.4375 39 C-41.5424483 30.90606222 -54.98867042 26.1356594 -68 22 C-63.62258809 20.63269651 -60.48939972 21.84885242 -56.3125 23.375 C-55.57153076 23.64175537 -54.83056152 23.90851074 -54.06713867 24.18334961 C-48.45638655 26.28376077 -43.11337238 28.77613651 -37.8125 31.5625 C-36.77186401 32.10753174 -36.77186401 32.10753174 -35.71020508 32.66357422 C-32.41366907 34.4578862 -29.48755637 36.32822682 -26.63671875 38.77734375 C-24.31989542 41.21483979 -24.31989542 41.21483979 -22 41 C-21.65332275 40.32646484 -21.30664551 39.65292969 -20.94946289 38.95898438 C-14.18859338 25.8418469 -7.37353296 12.78460108 0 0 Z " fill="#605F5E" transform="translate(443,231)"/>
<path d="M0 0 C1.64575195 2.02099609 1.64575195 2.02099609 2.73828125 4.5234375 C3.16141602 5.45309326 3.58455078 6.38274902 4.02050781 7.34057617 C4.66004395 8.84261597 4.66004395 8.84261597 5.3125 10.375 C6.24896446 12.46328943 7.18781724 14.55050929 8.12890625 16.63671875 C8.83490967 18.22492432 8.83490967 18.22492432 9.55517578 19.84521484 C12.17866887 25.57363285 15.12717093 31.14391998 18.09106445 36.70263672 C18.68794067 37.86110107 18.68794067 37.86110107 19.296875 39.04296875 C19.82812988 40.04880005 19.82812988 40.04880005 20.37011719 41.07495117 C21.14221705 43.43464396 20.67260077 44.65600116 20 47 C17.0247824 41.07489093 14.05268408 35.14822499 11.08276367 29.22045898 C10.07176564 27.203496 9.06005035 25.18689238 8.04760742 23.1706543 C6.59365775 20.27486526 5.14228053 17.37779962 3.69140625 14.48046875 C3.01012413 13.12564644 3.01012413 13.12564644 2.31507874 11.74345398 C1.89471848 10.90280899 1.47435822 10.062164 1.04125977 9.19604492 C0.67041763 8.45658127 0.2995755 7.71711761 -0.08250427 6.95524597 C-1 5 -1 5 -2 2 C-5.12380773 0.95873076 -7.38517854 0.84447668 -10.66479492 0.79467773 C-11.82577194 0.77473251 -12.98674896 0.75478729 -14.1829071 0.73423767 C-16.06270012 0.70916893 -16.06270012 0.70916893 -17.98046875 0.68359375 C-19.26359451 0.66281265 -20.54672028 0.64203156 -21.86872864 0.62062073 C-25.27662815 0.56548094 -28.68458741 0.51603611 -32.09259033 0.46777344 C-35.57154648 0.41749921 -39.05041607 0.36184409 -42.52929688 0.30664062 C-49.35278951 0.19915811 -56.17636036 0.09769123 -63 0 C-63 -0.33 -63 -0.66 -63 -1 C-55.15321412 -1.19409479 -47.30617616 -1.37138294 -39.45874023 -1.53710938 C-36.79026711 -1.59423018 -34.12214798 -1.6575674 -31.45385742 -1.72363281 C-27.61391871 -1.81803995 -23.77389767 -1.89862133 -19.93359375 -1.9765625 C-18.15038979 -2.02485703 -18.15038979 -2.02485703 -16.3311615 -2.0741272 C-5.07547151 -2.27673376 -5.07547151 -2.27673376 0 0 Z " fill="#737372" transform="translate(347,281)"/>
<path d="M0 0 C-0.52730713 0.22550537 -1.05461426 0.45101074 -1.59790039 0.68334961 C-26.3825218 11.35835366 -48.27092139 25.37906051 -67 45 C-67 42 -67 42 -65.0859375 39.6875 C-51.363912 26.08410873 -36.14522507 15.23001046 -19.125 6.125 C-18.43559326 5.75552246 -17.74618652 5.38604492 -17.03588867 5.00537109 C-4.55494458 -1.51831486 -4.55494458 -1.51831486 0 0 Z " fill="#5A5A5A" transform="translate(299,206)"/>
<path d="M0 0 C0.99 0.495 0.99 0.495 2 1 C-7.50761038 7.74298608 -16.19710937 12.06092446 -28 13 C-28.66 12.67 -29.32 12.34 -30 12 C-31.54142175 11.88177029 -33.08761097 11.82300189 -34.63330078 11.79467773 C-36.07456833 11.7647599 -36.07456833 11.7647599 -37.54495239 11.73423767 C-38.58457123 11.71752518 -39.62419006 11.70081268 -40.6953125 11.68359375 C-41.75789276 11.66281265 -42.82047302 11.64203156 -43.91525269 11.62062073 C-47.31843438 11.55509739 -50.72169489 11.49622727 -54.125 11.4375 C-56.42839366 11.39431743 -58.73177926 11.35070323 -61.03515625 11.30664062 C-66.69002021 11.19941318 -72.34496303 11.09765198 -78 11 C-78 10.67 -78 10.34 -78 10 C-77.29415268 10.00079559 -76.58830536 10.00159119 -75.86106873 10.00241089 C-69.14015636 10.00463807 -62.41989211 9.97770814 -55.69924831 9.9197216 C-52.24568975 9.89090672 -48.79279731 9.87254993 -45.33911133 9.87988281 C-21.18844909 10.31371135 -21.18844909 10.31371135 0 0 Z " fill="#6F6F6F" transform="translate(654,687)"/>
<path d="M0 0 C4.87747558 2.16776692 8.44009669 5.26351651 11.83984375 9.32421875 C15.15744282 13.15098225 18.66808701 16.73305339 22.265625 20.29296875 C22.82936325 20.8511731 23.3931015 21.40937744 23.97392273 21.98449707 C26.32862477 24.3116262 28.68699621 26.63495898 31.04980469 28.95385742 C32.7928414 30.66663639 34.52955489 32.38563285 36.265625 34.10546875 C36.79690002 34.62328415 37.32817505 35.14109955 37.87554932 35.67460632 C40.78648969 38.56578585 43.06139613 41.38025013 45 45 C41.93317548 43.65993729 40.18041889 42.30712224 38.08984375 39.7109375 C34.78453192 35.80457964 31.26641444 32.19385814 27.62890625 28.6015625 C27.05796234 28.03628845 26.48701843 27.4710144 25.89877319 26.88861084 C23.51123766 24.52816726 21.11959601 22.17196161 18.72387695 19.81982422 C16.95874547 18.08470636 15.19973315 16.34357159 13.44140625 14.6015625 C12.89464737 14.06826324 12.34788849 13.53496399 11.78456116 12.98550415 C10.48471482 11.69447777 9.23678457 10.35155967 8 9 C8 8.34 8 7.68 8 7 C7.4225 6.773125 6.845 6.54625 6.25 6.3125 C3.4336339 4.66961977 1.91922886 2.60466773 0 0 Z " fill="#5E5E5D" transform="translate(570,77)"/>
<path d="M0 0 C1.70363822 0.22622081 3.41328701 0.40888473 5.125 0.5625 C6.03507812 0.64628906 6.94515625 0.73007813 7.8828125 0.81640625 C8.58148438 0.87699219 9.28015625 0.93757812 10 1 C10 1.33 10 1.66 10 2 C5.92559541 2.95697414 2.04288414 3.18002419 -2.13671875 3.28125 C-2.81620071 3.29965942 -3.49568268 3.31806885 -4.195755 3.33703613 C-6.35958709 3.39543305 -8.52349776 3.44832089 -10.6875 3.5 C-23.87053014 3.81113441 -23.87053014 3.81113441 -37 5 C-33.09458933 1.09458933 -26.32963967 1.62818189 -21 1 C-20.17935059 0.90154785 -19.35870117 0.8030957 -18.51318359 0.70166016 C-15.92646268 0.39553646 -13.33869003 0.10147005 -10.75 -0.1875 C-9.49908569 -0.33155273 -9.49908569 -0.33155273 -8.22290039 -0.47851562 C-2.23389408 -1.11694704 -2.23389408 -1.11694704 0 0 Z " fill="#626262" transform="translate(355,195)"/>
<path d="M0 0 C11.688422 3.31999102 19.69598654 13.05029201 26 23 C30.21929842 30.93389607 32.14851344 37.08919379 32 46 C31.67 46 31.34 46 31 46 C30.76925781 44.94941406 30.53851562 43.89882812 30.30078125 42.81640625 C26.32413911 25.39393757 17.74638131 12.65635666 2.5625 2.6875 C1.716875 2.130625 0.87125 1.57375 0 1 C0 0.67 0 0.34 0 0 Z " fill="#595958" transform="translate(586,33)"/>
<path d="M0 0 C0.495 0.99 0.495 0.99 1 2 C-16.49 1.67 -33.98 1.34 -52 1 C-52 0.67 -52 0.34 -52 0 C-13.40926605 -2.90078 -13.40926605 -2.90078 0 0 Z " fill="#5A5C5B" transform="translate(569,26)"/>
<path d="M0 0 C1.66666667 1.66666667 3.33333333 3.33333333 5 5 C5.928125 5.886875 6.85625 6.77375 7.8125 7.6875 C10 10 10 10 10 12 C10.66 12 11.32 12 12 12 C12 12.66 12 13.32 12 14 C12.66 14 13.32 14 14 14 C15.375 15.3984375 15.375 15.3984375 17 17.375 C20.76222012 21.82921409 24.86058282 25.85683532 29.05859375 29.8984375 C31 32 31 32 31 34 C30.34 34 29.68 34 29 34 C27.80078125 32.77734375 27.80078125 32.77734375 26.3125 30.9375 C22.61010509 26.55698223 18.58699453 22.57761774 14.5 18.5625 C3.47741162 7.6693987 3.47741162 7.6693987 0 2 C0 1.34 0 0.68 0 0 Z " fill="#5D5E5D" transform="translate(625,120)"/>
<path d="M0 0 C0.66 0.33 1.32 0.66 2 1 C-1.50062532 4.59908041 -5.03535581 8.07424587 -8.875 11.3125 C-12.9796247 14.8330358 -16.48542217 18.77872686 -20.01953125 22.86328125 C-22 25 -22 25 -25 27 C-24.690625 26.443125 -24.38125 25.88625 -24.0625 25.3125 C-22.94238179 22.87459567 -22.43962636 20.63775814 -22 18 C-21.43796875 17.93039063 -20.8759375 17.86078125 -20.296875 17.7890625 C-17.10970215 16.69414938 -15.56043974 14.81052724 -13.25 12.375 C-9.01581519 8.00260738 -4.65056335 3.92310093 0 0 Z " fill="#898A8A" transform="translate(250,233)"/>
<path d="M0 0 C2 0 2 0 3.515625 1.50390625 C4.08796875 2.18324219 4.6603125 2.86257812 5.25 3.5625 C7.85677463 6.66803457 7.85677463 6.66803457 10.58203125 9.66796875 C17.1282434 16.66326141 21.62946923 25.36620002 22 35 C20.12675082 32.19012624 19.40296432 30.23873769 18.4375 27.0625 C15.03166707 17.45500114 8.00371472 9.86121136 1.21484375 2.42578125 C0 1 0 1 0 0 Z " fill="#5E5E5E" transform="translate(615,122)"/>
<path d="M0 0 C0.33 0.99 0.66 1.98 1 3 C-1.95867321 8.80997521 -6.16645095 12.3483868 -12 15 C-14.8125 15.875 -14.8125 15.875 -17 16 C-17.66 15.34 -18.32 14.68 -19 14 C-18.14728516 13.77957031 -18.14728516 13.77957031 -17.27734375 13.5546875 C-10.11018318 11.47274102 -5.26226203 8.35690495 -1.0625 2.125 C-0.5365625 1.073125 -0.5365625 1.073125 0 0 Z " fill="#626263" transform="translate(635,638)"/>
<path d="M0 0 C0.33 0 0.66 0 1 0 C1 6.27 1 12.54 1 19 C1.66 19 2.32 19 3 19 C3 21.64 3 24.28 3 27 C2.01 27 1.02 27 0 27 C0 18.09 0 9.18 0 0 Z " fill="#737473" transform="translate(127,551)"/>
<path d="M0 0 C0.33 0.66 0.66 1.32 1 2 C0.28735352 3.87939453 0.28735352 3.87939453 -0.87109375 6.1328125 C-1.48500977 7.34130859 -1.48500977 7.34130859 -2.11132812 8.57421875 C-2.54896484 9.41597656 -2.98660156 10.25773438 -3.4375 11.125 C-3.87126953 11.97449219 -4.30503906 12.82398438 -4.75195312 13.69921875 C-5.82759468 15.80322092 -6.91050766 17.9031458 -8 20 C-9.32 19.34 -10.64 18.68 -12 18 C-11 16 -11 16 -8 15 C-6.485981 12.49593417 -5.12573083 10.04258901 -3.8125 7.4375 C-3.44447266 6.72658203 -3.07644531 6.01566406 -2.69726562 5.28320312 C-1.78948968 3.52659773 -0.89360293 1.76385756 0 0 Z " fill="#5A5A5A" transform="translate(433,539)"/>
<path d="M0 0 C4.82439276 1.32420276 8.02605818 3.2613407 11.875 6.4375 C12.84179688 7.21996094 13.80859375 8.00242187 14.8046875 8.80859375 C15.52914062 9.53175781 16.25359375 10.25492188 17 11 C17 11.99 17 12.98 17 14 C16.05125 13.154375 15.1025 12.30875 14.125 11.4375 C10.2714661 8.11412374 6.15552545 5.26297024 1.94140625 2.41796875 C1.30074219 1.95003906 0.66007813 1.48210938 0 1 C0 0.67 0 0.34 0 0 Z " fill="#626261" transform="translate(586,33)"/>
<path d="M0 0 C2.3125 0.1875 2.3125 0.1875 5 1 C6.8125 3.5625 6.8125 3.5625 8 6 C5.03 5.01 2.06 4.02 -1 3 C-0.67 2.01 -0.34 1.02 0 0 Z " fill="#747574" transform="translate(562,71)"/>
<path d="M0 0 C1.17539996 0.92652701 2.34010577 1.86663387 3.5 2.8125 C4.1496875 3.33457031 4.799375 3.85664063 5.46875 4.39453125 C7 6 7 6 7 9 C3.99234114 6.15063897 1.72154788 3.76488042 0 0 Z " fill="#666666" transform="translate(264,433)"/>
<path d="M0 0 C2.31 0 4.62 0 7 0 C7 0.33 7 0.66 7 1 C4.69 1 2.38 1 0 1 C0 0.67 0 0.34 0 0 Z " fill="#919190" transform="translate(341,474)"/>
<path d="M0 0 C1.65 0 3.3 0 5 0 C3.02 0.99 3.02 0.99 1 2 C0.67 1.34 0.34 0.68 0 0 Z " fill="#90918F" transform="translate(372,471)"/>
<path d="M0 0 C0.66 0.33 1.32 0.66 2 1 C1.01 1 0.02 1 -1 1 C-0.67 0.67 -0.34 0.34 0 0 Z " fill="#908F8F" transform="translate(301,322)"/>
<path d="M0 0 C1 4 1 4 1 4 Z " fill="#B0B0B0" transform="translate(32,174)"/>
<path d="M0 0 C3 1 3 1 3 1 Z " fill="#969694" transform="translate(551,651)"/>
<path d="M0 0 C0.66 0 1.32 0 2 0 C1.67 0.66 1.34 1.32 1 2 C0.67 1.34 0.34 0.68 0 0 Z " fill="#919192" transform="translate(628,643)"/>
<path d="" fill="#AFAFAE" transform="translate(0,0)"/>
<path d="M0 0 C3 1 3 1 3 1 Z " fill="#919291" transform="translate(385,529)"/>
<path d="M0 0 C3 1 3 1 3 1 Z " fill="#8F908F" transform="translate(319,528)"/>
<path d="" fill="#B1B2B1" transform="translate(0,0)"/>
<path d="" fill="#B1B1B0" transform="translate(0,0)"/>
<path d="M0 0 C0.66 0 1.32 0 2 0 C1.67 0.66 1.34 1.32 1 2 C0.67 1.34 0.34 0.68 0 0 Z " fill="#8F9090" transform="translate(319,360)"/>
<path d="" fill="#909190" transform="translate(0,0)"/>
<path d="" fill="#B1B3B1" transform="translate(0,0)"/>
<path d="" fill="#AEAFAE" transform="translate(0,0)"/>
<path d="M0 0 C2 1 2 1 2 1 Z " fill="#979895" transform="translate(600,651)"/>
<path d="M0 0 C2 1 2 1 2 1 Z " fill="#969694" transform="translate(567,651)"/>
<path d="M0 0 C2 1 2 1 2 1 Z " fill="#8D8D8C" transform="translate(425,561)"/>
<path d="" fill="#8D8D8C" transform="translate(0,0)"/>
<path d="" fill="#B1B1B0" transform="translate(0,0)"/>
<path d="" fill="#8E8F90" transform="translate(0,0)"/>
<path d="" fill="#B2B2B1" transform="translate(0,0)"/>
<path d="" fill="#8E8F8E" transform="translate(0,0)"/>
<path d="M0 0 C2 1 2 1 2 1 Z " fill="#8E8F8E" transform="translate(324,529)"/>
<path d="M0 0 C2 1 2 1 2 1 Z " fill="#949493" transform="translate(391,528)"/>
<path d="" fill="#909090" transform="translate(0,0)"/>
<path d="M0 0 C2 1 2 1 2 1 Z " fill="#908F90" transform="translate(262,503)"/>
<path d="" fill="#8E8F8C" transform="translate(0,0)"/>
<path d="M0 0 C2 1 2 1 2 1 Z " fill="#919291" transform="translate(357,474)"/>
<path d="M0 0 C2 1 2 1 2 1 Z " fill="#909091" transform="translate(351,474)"/>
<path d="" fill="#929292" transform="translate(0,0)"/>
<path d="M0 0 C2 1 2 1 2 1 Z " fill="#90908F" transform="translate(367,455)"/>
<path d="" fill="#909190" transform="translate(0,0)"/>
<path d="M0 0 C2 1 2 1 2 1 Z " fill="#919392" transform="translate(452,379)"/>
<path d="M0 0 C2 1 2 1 2 1 Z " fill="#8F8F8F" transform="translate(302,325)"/>
<path d="" fill="#939291" transform="translate(0,0)"/>
<path d="M0 0 C2 1 2 1 2 1 Z " fill="#929291" transform="translate(415,273)"/>
<path d="M0 0 C2 1 2 1 2 1 Z " fill="#919090" transform="translate(328,257)"/>
<path d="M0 0 C2 1 2 1 2 1 Z " fill="#939392" transform="translate(366,253)"/>
<path d="" fill="#B2B2B2" transform="translate(0,0)"/>
<path d="" fill="#B2B2B1" transform="translate(0,0)"/>
<path d="M0 0 C2 1 2 1 2 1 Z " fill="#8C8B8A" transform="translate(418,210)"/>
<path d="" fill="#B1B1B0" transform="translate(0,0)"/>
<path d="M0 0 C2 1 2 1 2 1 Z " fill="#909190" transform="translate(316,197)"/>
<path d="M0 0 C2 1 2 1 2 1 Z " fill="#909190" transform="translate(326,195)"/>
<path d="M0 0 C2 1 2 1 2 1 Z " fill="#8F9090" transform="translate(343,194)"/>
<path d="M0 0 C2 1 2 1 2 1 Z " fill="#919291" transform="translate(340,194)"/>
<path d="" fill="#B0B1AF" transform="translate(0,0)"/>
<path d="" fill="#AFAFAE" transform="translate(0,0)"/>
<path d="" fill="#B1B2B1" transform="translate(0,0)"/>
<path d="" fill="#B2B1AF" transform="translate(0,0)"/>
<path d="" fill="#B1B1B1" transform="translate(0,0)"/>
<path d="" fill="#A8A7A6" transform="translate(0,0)"/>
<path d="" fill="#959594" transform="translate(0,0)"/>
<path d="" fill="#ADAEAE" transform="translate(0,0)"/>
<path d="" fill="#ADB1AF" transform="translate(0,0)"/>
<path d="" fill="#AFADAF" transform="translate(0,0)"/>
<path d="" fill="#AEAFAF" transform="translate(0,0)"/>
<path d="" fill="#B1B0AF" transform="translate(0,0)"/>
<path d="" fill="#AFB0B0" transform="translate(0,0)"/>
<path d="" fill="#979896" transform="translate(0,0)"/>
<path d="" fill="#989996" transform="translate(0,0)"/>
<path d="" fill="#969796" transform="translate(0,0)"/>
<path d="" fill="#969693" transform="translate(0,0)"/>
<path d="" fill="#969795" transform="translate(0,0)"/>
<path d="" fill="#949595" transform="translate(0,0)"/>
<path d="" fill="#969895" transform="translate(0,0)"/>
<path d="" fill="#969594" transform="translate(0,0)"/>
<path d="" fill="#969694" transform="translate(0,0)"/>
<path d="" fill="#959594" transform="translate(0,0)"/>
<path d="" fill="#969693" transform="translate(0,0)"/>
<path d="" fill="#979695" transform="translate(0,0)"/>
<path d="" fill="#969794" transform="translate(0,0)"/>
<path d="" fill="#959694" transform="translate(0,0)"/>
<path d="" fill="#939694" transform="translate(0,0)"/>
<path d="" fill="#969995" transform="translate(0,0)"/>
<path d="" fill="#969694" transform="translate(0,0)"/>
<path d="" fill="#939693" transform="translate(0,0)"/>
<path d="" fill="#979795" transform="translate(0,0)"/>
<path d="" fill="#929092" transform="translate(0,0)"/>
<path d="" fill="#908F8E" transform="translate(0,0)"/>
<path d="" fill="#92918F" transform="translate(0,0)"/>
<path d="" fill="#939290" transform="translate(0,0)"/>
<path d="" fill="#8E8D8D" transform="translate(0,0)"/>
<path d="" fill="#AFAFAF" transform="translate(0,0)"/>
<path d="" fill="#8F9090" transform="translate(0,0)"/>
<path d="" fill="#B0B0AF" transform="translate(0,0)"/>
<path d="" fill="#919190" transform="translate(0,0)"/>
<path d="" fill="#B0B2AF" transform="translate(0,0)"/>
<path d="" fill="#AEB0AE" transform="translate(0,0)"/>
<path d="" fill="#B0B0B0" transform="translate(0,0)"/>
<path d="" fill="#B1B1B1" transform="translate(0,0)"/>
<path d="" fill="#B1B1B0" transform="translate(0,0)"/>
<path d="" fill="#B0AFAF" transform="translate(0,0)"/>
<path d="" fill="#B0B1B0" transform="translate(0,0)"/>
<path d="" fill="#B1B1B0" transform="translate(0,0)"/>
<path d="" fill="#B0B1B0" transform="translate(0,0)"/>
<path d="" fill="#B0B1B0" transform="translate(0,0)"/>
<path d="" fill="#B0B1B1" transform="translate(0,0)"/>
<path d="" fill="#B1B2AF" transform="translate(0,0)"/>
<path d="" fill="#B0B1AF" transform="translate(0,0)"/>
<path d="" fill="#AFB0B1" transform="translate(0,0)"/>
<path d="" fill="#8E8C8E" transform="translate(0,0)"/>
<path d="" fill="#B1B1B1" transform="translate(0,0)"/>
<path d="" fill="#B3B3B1" transform="translate(0,0)"/>
<path d="" fill="#B0B3AF" transform="translate(0,0)"/>
<path d="" fill="#B1B2B0" transform="translate(0,0)"/>
<path d="" fill="#8F908D" transform="translate(0,0)"/>
<path d="" fill="#B2B2B2" transform="translate(0,0)"/>
<path d="" fill="#929290" transform="translate(0,0)"/>
<path d="" fill="#92918E" transform="translate(0,0)"/>
<path d="" fill="#919190" transform="translate(0,0)"/>
<path d="" fill="#8F9090" transform="translate(0,0)"/>
<path d="" fill="#909091" transform="translate(0,0)"/>
<path d="" fill="#B1B1B1" transform="translate(0,0)"/>
<path d="" fill="#B1B2B1" transform="translate(0,0)"/>
<path d="" fill="#8E8F8D" transform="translate(0,0)"/>
<path d="" fill="#B2B3B0" transform="translate(0,0)"/>
<path d="" fill="#91908F" transform="translate(0,0)"/>
<path d="" fill="#91918E" transform="translate(0,0)"/>
<path d="" fill="#B1B2B0" transform="translate(0,0)"/>
<path d="" fill="#908F8F" transform="translate(0,0)"/>
<path d="" fill="#B2B2B1" transform="translate(0,0)"/>
<path d="" fill="#B1B3B1" transform="translate(0,0)"/>
<path d="" fill="#8F8F8D" transform="translate(0,0)"/>
<path d="" fill="#8D8F8E" transform="translate(0,0)"/>
<path d="" fill="#8F9090" transform="translate(0,0)"/>
<path d="" fill="#919293" transform="translate(0,0)"/>
<path d="" fill="#B1B2B1" transform="translate(0,0)"/>
<path d="" fill="#91918F" transform="translate(0,0)"/>
<path d="" fill="#91918F" transform="translate(0,0)"/>
<path d="" fill="#B1B1B2" transform="translate(0,0)"/>
<path d="" fill="#8F8C8C" transform="translate(0,0)"/>
<path d="" fill="#8D8E8C" transform="translate(0,0)"/>
<path d="" fill="#8F8F8F" transform="translate(0,0)"/>
<path d="" fill="#8F8E8D" transform="translate(0,0)"/>
<path d="" fill="#8F8E8D" transform="translate(0,0)"/>
<path d="" fill="#908E8F" transform="translate(0,0)"/>
<path d="" fill="#8F8F8E" transform="translate(0,0)"/>
<path d="" fill="#8F908F" transform="translate(0,0)"/>
<path d="" fill="#909090" transform="translate(0,0)"/>
<path d="" fill="#B2B3B2" transform="translate(0,0)"/>
<path d="" fill="#8F8F8F" transform="translate(0,0)"/>
<path d="" fill="#8D8E8E" transform="translate(0,0)"/>
<path d="" fill="#929090" transform="translate(0,0)"/>
<path d="" fill="#929190" transform="translate(0,0)"/>
<path d="" fill="#B2B2B2" transform="translate(0,0)"/>
<path d="" fill="#959393" transform="translate(0,0)"/>
<path d="" fill="#929393" transform="translate(0,0)"/>
<path d="" fill="#90908F" transform="translate(0,0)"/>
<path d="" fill="#908F8E" transform="translate(0,0)"/>
<path d="" fill="#91918F" transform="translate(0,0)"/>
<path d="" fill="#909190" transform="translate(0,0)"/>
<path d="" fill="#8F908E" transform="translate(0,0)"/>
<path d="" fill="#959495" transform="translate(0,0)"/>
<path d="" fill="#939191" transform="translate(0,0)"/>
<path d="" fill="#908F8E" transform="translate(0,0)"/>
<path d="" fill="#91908D" transform="translate(0,0)"/>
<path d="" fill="#939494" transform="translate(0,0)"/>
<path d="" fill="#8F918E" transform="translate(0,0)"/>
<path d="" fill="#B2B2B1" transform="translate(0,0)"/>
<path d="" fill="#909190" transform="translate(0,0)"/>
<path d="" fill="#909291" transform="translate(0,0)"/>
<path d="" fill="#919290" transform="translate(0,0)"/>
<path d="" fill="#919291" transform="translate(0,0)"/>
<path d="" fill="#919090" transform="translate(0,0)"/>
<path d="" fill="#949394" transform="translate(0,0)"/>
<path d="" fill="#909091" transform="translate(0,0)"/>
<path d="" fill="#B1B0B1" transform="translate(0,0)"/>
<path d="" fill="#90908E" transform="translate(0,0)"/>
<path d="" fill="#B1B3B1" transform="translate(0,0)"/>
<path d="" fill="#8F908E" transform="translate(0,0)"/>
<path d="" fill="#90918E" transform="translate(0,0)"/>
<path d="" fill="#939494" transform="translate(0,0)"/>
<path d="" fill="#909090" transform="translate(0,0)"/>
<path d="" fill="#939595" transform="translate(0,0)"/>
<path d="" fill="#B0B1B1" transform="translate(0,0)"/>
<path d="" fill="#8E8F8E" transform="translate(0,0)"/>
<path d="" fill="#8F9191" transform="translate(0,0)"/>
<path d="" fill="#B2B2AF" transform="translate(0,0)"/>
<path d="" fill="#8F9191" transform="translate(0,0)"/>
<path d="" fill="#939392" transform="translate(0,0)"/>
<path d="" fill="#908F90" transform="translate(0,0)"/>
<path d="" fill="#B1B1B0" transform="translate(0,0)"/>
<path d="" fill="#929393" transform="translate(0,0)"/>
<path d="" fill="#949393" transform="translate(0,0)"/>
<path d="" fill="#908E8F" transform="translate(0,0)"/>
<path d="" fill="#92918F" transform="translate(0,0)"/>
<path d="" fill="#8E8E8D" transform="translate(0,0)"/>
<path d="" fill="#909090" transform="translate(0,0)"/>
<path d="" fill="#B2B3B1" transform="translate(0,0)"/>
<path d="" fill="#919192" transform="translate(0,0)"/>
<path d="" fill="#919191" transform="translate(0,0)"/>
<path d="" fill="#929392" transform="translate(0,0)"/>
<path d="" fill="#8F8F90" transform="translate(0,0)"/>
<path d="" fill="#8E908F" transform="translate(0,0)"/>
<path d="" fill="#909091" transform="translate(0,0)"/>
<path d="" fill="#B1B1B1" transform="translate(0,0)"/>
<path d="" fill="#8F908F" transform="translate(0,0)"/>
<path d="" fill="#939493" transform="translate(0,0)"/>
<path d="" fill="#B2B0B1" transform="translate(0,0)"/>
<path d="" fill="#919090" transform="translate(0,0)"/>
<path d="" fill="#B0B2B0" transform="translate(0,0)"/>
<path d="" fill="#919393" transform="translate(0,0)"/>
<path d="" fill="#929192" transform="translate(0,0)"/>
<path d="" fill="#929291" transform="translate(0,0)"/>
<path d="" fill="#8F9190" transform="translate(0,0)"/>
<path d="" fill="#939291" transform="translate(0,0)"/>
<path d="" fill="#8E8E8F" transform="translate(0,0)"/>
<path d="" fill="#929290" transform="translate(0,0)"/>
<path d="" fill="#929091" transform="translate(0,0)"/>
<path d="" fill="#90908D" transform="translate(0,0)"/>
<path d="" fill="#918F90" transform="translate(0,0)"/>
<path d="" fill="#908F90" transform="translate(0,0)"/>
<path d="" fill="#AFB1B0" transform="translate(0,0)"/>
<path d="" fill="#90908F" transform="translate(0,0)"/>
<path d="" fill="#B1B1AF" transform="translate(0,0)"/>
<path d="" fill="#92908F" transform="translate(0,0)"/>
<path d="" fill="#919391" transform="translate(0,0)"/>
<path d="" fill="#B1B0AE" transform="translate(0,0)"/>
<path d="" fill="#908F90" transform="translate(0,0)"/>
<path d="" fill="#939393" transform="translate(0,0)"/>
<path d="" fill="#B1B0B0" transform="translate(0,0)"/>
<path d="" fill="#929193" transform="translate(0,0)"/>
<path d="" fill="#939695" transform="translate(0,0)"/>
<path d="" fill="#8E8F8D" transform="translate(0,0)"/>
<path d="" fill="#8F908F" transform="translate(0,0)"/>
<path d="" fill="#8F8E8E" transform="translate(0,0)"/>
<path d="" fill="#8F8F8E" transform="translate(0,0)"/>
<path d="" fill="#B2B3B1" transform="translate(0,0)"/>
<path d="" fill="#929090" transform="translate(0,0)"/>
<path d="" fill="#8F918E" transform="translate(0,0)"/>
<path d="" fill="#959493" transform="translate(0,0)"/>
<path d="" fill="#949491" transform="translate(0,0)"/>
<path d="" fill="#B0B2B2" transform="translate(0,0)"/>
<path d="" fill="#B1B2B0" transform="translate(0,0)"/>
<path d="" fill="#8D8C8C" transform="translate(0,0)"/>
<path d="" fill="#8D8D8C" transform="translate(0,0)"/>
<path d="" fill="#969394" transform="translate(0,0)"/>
<path d="" fill="#909190" transform="translate(0,0)"/>
<path d="" fill="#B0B1B1" transform="translate(0,0)"/>
<path d="" fill="#B1B1B0" transform="translate(0,0)"/>
<path d="" fill="#8F918E" transform="translate(0,0)"/>
<path d="" fill="#91908F" transform="translate(0,0)"/>
<path d="" fill="#92908E" transform="translate(0,0)"/>
<path d="" fill="#929291" transform="translate(0,0)"/>
<path d="" fill="#919390" transform="translate(0,0)"/>
<path d="" fill="#B2B1B2" transform="translate(0,0)"/>
<path d="" fill="#959292" transform="translate(0,0)"/>
<path d="" fill="#929190" transform="translate(0,0)"/>
<path d="" fill="#929091" transform="translate(0,0)"/>
<path d="" fill="#92928F" transform="translate(0,0)"/>
<path d="" fill="#939291" transform="translate(0,0)"/>
<path d="" fill="#919190" transform="translate(0,0)"/>
<path d="" fill="#B2B2B2" transform="translate(0,0)"/>
<path d="" fill="#B4B4B2" transform="translate(0,0)"/>
<path d="" fill="#B1B2B1" transform="translate(0,0)"/>
<path d="" fill="#8F8F8F" transform="translate(0,0)"/>
<path d="" fill="#B2B2B1" transform="translate(0,0)"/>
<path d="" fill="#B1B3B0" transform="translate(0,0)"/>
<path d="" fill="#898A8A" transform="translate(0,0)"/>
<path d="" fill="#B1B1B1" transform="translate(0,0)"/>
<path d="" fill="#B2B3B2" transform="translate(0,0)"/>
<path d="" fill="#8B8D8C" transform="translate(0,0)"/>
<path d="" fill="#939091" transform="translate(0,0)"/>
<path d="" fill="#B1B1B1" transform="translate(0,0)"/>
<path d="" fill="#8D8F8B" transform="translate(0,0)"/>
<path d="" fill="#918F90" transform="translate(0,0)"/>
<path d="" fill="#8E8F8E" transform="translate(0,0)"/>
<path d="" fill="#8E8F8E" transform="translate(0,0)"/>
<path d="" fill="#90908F" transform="translate(0,0)"/>
<path d="" fill="#949493" transform="translate(0,0)"/>
<path d="" fill="#909191" transform="translate(0,0)"/>
<path d="" fill="#8D8D8C" transform="translate(0,0)"/>
<path d="" fill="#B1B2B3" transform="translate(0,0)"/>
<path d="" fill="#B1B1B2" transform="translate(0,0)"/>
<path d="" fill="#B2B1B2" transform="translate(0,0)"/>
<path d="" fill="#B1B2B2" transform="translate(0,0)"/>
<path d="" fill="#8C8D8D" transform="translate(0,0)"/>
<path d="" fill="#8B8D8C" transform="translate(0,0)"/>
<path d="" fill="#AEB1B0" transform="translate(0,0)"/>
<path d="" fill="#8C8C8B" transform="translate(0,0)"/>
<path d="" fill="#B0B0B0" transform="translate(0,0)"/>
<path d="" fill="#B0B2B1" transform="translate(0,0)"/>
<path d="" fill="#B0AFAF" transform="translate(0,0)"/>
<path d="" fill="#B0B1AE" transform="translate(0,0)"/>
<path d="" fill="#8E8E8E" transform="translate(0,0)"/>
<path d="" fill="#B0B1AF" transform="translate(0,0)"/>
<path d="" fill="#AFADAC" transform="translate(0,0)"/>
<path d="" fill="#8D8E8D" transform="translate(0,0)"/>
<path d="" fill="#8F908F" transform="translate(0,0)"/>
<path d="" fill="#A9AAAB" transform="translate(0,0)"/>
<path d="" fill="#949794" transform="translate(0,0)"/>
<path d="" fill="#878885" transform="translate(0,0)"/>
<path d="" fill="#868686" transform="translate(0,0)"/>
<path d="" fill="#8A8A88" transform="translate(0,0)"/>
</svg>
