<?xml version="1.0" encoding="UTF-8"?>
<svg version="1.1" xmlns="http://www.w3.org/2000/svg" width="692" height="665">
<path d="M0 0 C0.95922363 0.25120605 1.91844727 0.50241211 2.90673828 0.76123047 C16.84556449 4.46178374 30.16217223 9.10155066 43.38134766 14.86035156 C45.91748114 15.96408745 48.46347812 17.04176481 51.01171875 18.1171875 C77.13636306 29.32195237 102.41014636 44.71533926 125 62 C124.35360289 65.22694986 123.19527101 67.64340592 121.515625 70.46484375 C120.99959717 71.33592773 120.48356934 72.20701172 119.9519043 73.10449219 C119.39027588 74.03938477 118.82864746 74.97427734 118.25 75.9375 C117.66581299 76.91750977 117.08162598 77.89751953 116.47973633 78.90722656 C111.02376821 88.02856867 105.42927968 97.06208137 99.81103516 106.08398438 C96.67626648 111.13139299 93.56303036 116.19206129 90.44985962 121.25280762 C89.39753547 122.96336842 88.3446479 124.67358257 87.29174805 126.38378906 C86.64633057 127.43276367 86.00091309 128.48173828 85.3359375 129.5625 C84.76407715 130.49191406 84.1922168 131.42132813 83.60302734 132.37890625 C82.05446498 134.91094486 80.52305553 137.45255287 79 140 C74.94358812 139.44212517 72.82515312 137.35172215 69.8125 134.6875 C36.59023375 106.12251199 -7.98823536 85.07484733 -52 82 C-52.9290918 81.93441895 -53.85818359 81.86883789 -54.81542969 81.80126953 C-114.35420565 77.94723824 -171.34233685 94.03534918 -217 133 C-224.16735969 139.30877905 -231.31755544 145.74645302 -237.41796875 153.11328125 C-238.56504406 154.48127477 -239.76254375 155.80748739 -240.98828125 157.10546875 C-278.16867444 196.53121428 -296.34225956 252.72627824 -294.9140625 306.21875 C-293.06352491 351.50249346 -277.98453009 394.34146714 -250 430 C-249.05060547 431.23943359 -249.05060547 431.23943359 -248.08203125 432.50390625 C-244.21912108 437.46595375 -240.11801878 442.17560346 -235.875 446.8125 C-235.38410889 447.35189209 -234.89321777 447.89128418 -234.38745117 448.44702148 C-231.9326596 451.09503899 -229.45253157 453.50180901 -226.6328125 455.76171875 C-225.76398438 456.50035156 -224.89515625 457.23898437 -224 458 C-224 458.66 -224 459.32 -224 460 C-223.44183594 460.24621094 -222.88367188 460.49242187 -222.30859375 460.74609375 C-219.57333484 462.23174199 -217.4315749 464.04255193 -215.0625 466.0625 C-169.42544944 503.7626722 -108.69072218 519.33902894 -50.25 514 C-49.15945313 513.90460937 -48.06890625 513.80921875 -46.9453125 513.7109375 C-44.29642926 513.47857932 -41.64805804 513.24155018 -39 513 C-39.30679687 512.07960938 -39.61359375 511.15921875 -39.9296875 510.2109375 C-40.953125 507.140625 -41.9765625 504.0703125 -43 501 C-43.99 501 -44.98 501 -46 501 C-46.06445312 500.21109375 -46.12890625 499.4221875 -46.1953125 498.609375 C-47.29171453 493.69153289 -49.50178631 489.66700112 -51.875 485.25 C-52.32230469 484.38761719 -52.76960938 483.52523438 -53.23046875 482.63671875 C-55.79367916 477.62914503 -55.79367916 477.62914503 -60 474 C-60.1875 470.875 -60.1875 470.875 -60 468 C-60.66 467.67 -61.32 467.34 -62 467 C-63.31869965 464.39341143 -64.54791776 461.78521339 -65.75 459.125 C-69.91182173 450.14072281 -74.38699988 441.35012297 -78.97460938 432.5769043 C-82.85658945 425.1455527 -86.69552049 417.69402809 -90.5 410.22265625 C-90.97435486 409.29207397 -91.44870972 408.3614917 -91.93743896 407.40270996 C-93.85186094 403.64687053 -95.76626779 399.89104691 -97.67346191 396.13153076 C-99.01328818 393.49089146 -100.35777685 390.85267298 -101.703125 388.21484375 C-102.10772949 387.41401871 -102.51233398 386.61319366 -102.92919922 385.7881012 C-103.4926001 384.68630775 -103.4926001 384.68630775 -104.06738281 383.56225586 C-104.39377747 382.91977402 -104.72017212 382.27729218 -105.05645752 381.61534119 C-106.36484601 379.375385 -107.68385402 378.15807299 -110 377 C-110.12753662 376.1548584 -110.25507324 375.3097168 -110.38647461 374.43896484 C-111.15220701 370.14684127 -112.83493201 366.82795222 -114.81640625 362.9765625 C-115.19232407 362.23038666 -115.56824188 361.48421082 -115.95555115 360.71542358 C-117.15036788 358.34806544 -118.35622494 355.98653669 -119.5625 353.625 C-120.37769018 352.01469583 -121.19215131 350.40402236 -122.00585938 348.79296875 C-123.99549192 344.85765402 -125.99504097 340.92752683 -128 337 C-128.66 337 -129.32 337 -130 337 C-130.11859879 336.27515411 -130.23719757 335.55030823 -130.35939026 334.80349731 C-131.00961373 331.95792747 -131.9423839 329.74721115 -133.24975586 327.14404297 C-133.71792221 326.20470917 -134.18608856 325.26537537 -134.66844177 324.2975769 C-135.17875443 323.2892984 -135.68906708 322.2810199 -136.21484375 321.2421875 C-136.74461319 320.18452179 -137.27438263 319.12685608 -137.82020569 318.03713989 C-138.94642827 315.79141963 -140.07552911 313.54714085 -141.20727539 311.30419922 C-142.90527779 307.93886245 -144.59507998 304.56952007 -146.28320312 301.19921875 C-151.62423382 290.55610781 -157.03441219 279.95605792 -162.6103363 269.43405151 C-166.18701987 262.67737203 -169.61147381 255.85319903 -173 249 C-177.36970267 240.19946317 -181.81389856 231.4469358 -186.43554688 222.77563477 C-190.02220608 216.02528553 -193.42562212 209.18767684 -196.77832031 202.31835938 C-197.17116211 201.52107422 -197.56400391 200.72378906 -197.96875 199.90234375 C-198.31357422 199.19585693 -198.65839844 198.48937012 -199.01367188 197.76147461 C-199.99239221 195.82660727 -199.99239221 195.82660727 -202 194 C-202.64838084 192.69421338 -203.24648198 191.36307136 -203.8125 190.01953125 C-206.0565562 184.83015128 -208.49463446 179.75517121 -211 174.6875 C-211.42539063 173.80771484 -211.85078125 172.92792969 -212.2890625 172.02148438 C-214.43545575 167.68590169 -216.31729856 164.24210736 -220 161 C-220.6875 158.9375 -220.6875 158.9375 -221 157 C-221.9416752 153.92586642 -221.9416752 153.92586642 -223.5625 150.9375 C-225 148 -225 148 -225 146 C-218.76462692 145.21527029 -212.69345959 144.85134921 -206.4128418 144.85473633 C-205.5011171 144.85137772 -204.5893924 144.8480191 -203.65003967 144.84455872 C-200.66641849 144.83513586 -197.68285384 144.83311069 -194.69921875 144.83203125 C-192.61416094 144.82881506 -190.52910336 144.82545072 -188.44404602 144.82194519 C-184.08923824 144.81597742 -179.73445025 144.81410311 -175.37963867 144.81469727 C-169.79652389 144.81479931 -164.21353507 144.80109283 -158.63045025 144.78392506 C-154.33168451 144.77282202 -150.03294953 144.77077746 -145.73417091 144.77130699 C-143.67485936 144.77012641 -141.61554702 144.76570024 -139.55624962 144.75797462 C-136.68413706 144.74819946 -133.81230239 144.75104188 -130.94018555 144.75708008 C-130.08973663 144.75146057 -129.23928772 144.74584106 -128.36306763 144.74005127 C-121.07726927 144.77905984 -121.07726927 144.77905984 -118 147 C-116.78662109 148.76147461 -116.78662109 148.76147461 -115.7734375 150.90234375 C-115.38655762 151.70067627 -114.99967773 152.49900879 -114.60107422 153.3215332 C-114.19646973 154.18480225 -113.79186523 155.04807129 -113.375 155.9375 C-112.49140105 157.76390135 -111.60593671 159.58940124 -110.71875 161.4140625 C-110.04392578 162.81060059 -110.04392578 162.81060059 -109.35546875 164.23535156 C-107.27832154 168.47195368 -105.08512319 172.64410487 -102.875 176.8125 C-102.45927734 177.59915039 -102.04355469 178.38580078 -101.61523438 179.19628906 C-99.71260104 182.79031849 -97.79918722 186.37840472 -95.875 189.9609375 C-91.51486349 198.08046655 -87.3218167 206.26656525 -83.22802734 214.5234375 C-74.89174196 231.33522258 -66.44060976 248.06477488 -57.60205078 264.61816406 C-56.6493627 266.40352669 -55.69824241 268.18972688 -54.7487793 269.97680664 C-53.85159654 271.6654618 -52.95087012 273.35224029 -52.04614258 275.03686523 C-51.6467749 275.78911377 -51.24740723 276.5413623 -50.8359375 277.31640625 C-50.48063965 277.98099854 -50.1253418 278.64559082 -49.75927734 279.33032227 C-49 281 -49 281 -49 283 C-48.34 283.33 -47.68 283.66 -47 284 C-45.74850972 286.28796931 -44.58906253 288.56979087 -43.4609375 290.91796875 C-42.74014693 292.38894512 -42.01843161 293.85946864 -41.29589844 295.32958984 C-40.91929077 296.09881775 -40.54268311 296.86804565 -40.15466309 297.6605835 C-38.2809213 301.45689646 -36.34867516 305.22271675 -34.4140625 308.98828125 C-34.02634674 309.74404449 -33.63863098 310.49980774 -33.23916626 311.2784729 C-32.03544107 313.62366217 -30.83034224 315.96814148 -29.625 318.3125 C-28.99588715 319.53712952 -28.99588715 319.53712952 -28.35406494 320.78649902 C-23.54782942 330.14111353 -18.72952093 339.48779574 -13.79882812 348.77758789 C-11.08390785 353.90570528 -8.41865381 359.05842963 -5.765625 364.21875 C-5.38596588 364.95708069 -5.00630676 365.69541138 -4.61514282 366.45611572 C-2.70297361 370.17615674 -0.79321772 373.89741728 1.11376953 377.62011719 C1.82320903 379.00197015 2.53268034 380.38380678 3.2421875 381.765625 C3.56161316 382.39094116 3.88103882 383.01625732 4.21014404 383.66052246 C6.36091895 387.84512274 8.64277294 391.9297894 11 396 C13.27903855 393.1151146 15.04274354 390.2011619 16.72265625 386.93359375 C17.25173584 385.9089502 17.78081543 384.88430664 18.32592773 383.82861328 C19.18553101 382.15001221 19.18553101 382.15001221 20.0625 380.4375 C20.67683991 379.2444616 21.29151339 378.05159491 21.90649414 376.85888672 C23.58610497 373.59908253 25.26108649 370.33691979 26.93518066 367.07427979 C28.75390763 363.53137964 30.57636226 359.99039774 32.3984375 356.44921875 C34.67777005 352.01866334 36.95674077 347.58792289 39.234375 343.15649414 C44.16790123 333.55791637 49.10695529 323.96223186 54.0625 314.375 C54.37380859 313.77267548 54.68511719 313.17035095 55.00585938 312.54977417 C58.61221227 305.57539611 62.24591861 298.61712564 65.9375 291.6875 C69.65916336 284.69607748 73.22265167 277.63475312 76.74072266 270.5390625 C79.44559124 265.08527552 82.15765974 259.63508286 84.875 254.1875 C85.17838287 253.57921356 85.48176575 252.97092712 85.79434204 252.34420776 C89.91495875 244.08968424 94.09476843 235.87126584 98.45263672 227.73901367 C102.4587836 220.23913405 106.21281896 212.61186294 110 205 C112.90112585 199.1747676 115.80417381 193.35049544 118.70898438 187.52709961 C119.57037642 185.79926576 120.43105246 184.07107477 121.29101562 182.3425293 C126.19893177 172.47921907 131.1711417 162.66514405 136.40625 152.97094727 C137.64206691 150.66723158 138.83086789 148.33826422 140 146 C175.97 146 211.94 146 249 146 C247.32009642 150.19975894 245.46469253 154.20190274 243.4296875 158.23046875 C243.07921356 158.92762497 242.72873962 159.62478119 242.36764526 160.34306335 C238.33141668 168.35571917 234.2331923 176.33656946 230.125 184.3125 C229.73026489 185.07957275 229.33552979 185.84664551 228.92883301 186.63696289 C224.20062617 195.82414804 219.45438622 205.0006007 214.62109375 214.13305664 C211.08455149 220.81914326 207.60322821 227.53342139 204.125 234.25 C199.67666124 242.83856748 195.22348067 251.42449603 190.75 260 C190.26063965 260.9381958 189.7712793 261.8763916 189.26708984 262.84301758 C186.95881651 267.26391503 184.6434054 271.68083336 182.3125 276.08984375 C181.87969727 276.90904297 181.44689453 277.72824219 181.00097656 278.57226562 C180.21816759 280.05233068 179.43389841 281.53162539 178.64746094 283.00976562 C174.62918232 290.60420524 170.82824941 298.30871581 167 306 C164.13522509 311.75185577 161.26908582 317.50302863 158.40087891 323.25317383 C157.55315027 324.95365973 156.70614001 326.65450396 155.85986328 328.35571289 C150.50233369 339.12362197 145.02797221 349.81798779 139.40185547 360.44799805 C136.0659288 366.75544138 132.80915132 373.10329782 129.55151367 379.45141602 C122.35585501 393.47016962 115.09029863 407.44894535 107.6796875 421.35546875 C107.29232422 422.08378906 106.90496094 422.81210937 106.50585938 423.5625 C105.80337236 424.88254469 105.09924981 426.20172203 104.39257812 427.51953125 C101.93293069 432.1392227 99.58455205 436.8122384 97.25 441.49609375 C93.10115307 449.81989897 88.88157677 458.10582025 84.625 466.375 C84.25593536 467.09267548 83.88687073 467.81035095 83.50662231 468.54977417 C78.89660903 477.50605521 74.20511585 486.39707495 69.24780273 495.16723633 C66.41423279 500.19571398 63.793157 505.30219 61.2434082 510.47949219 C56.01201767 521.07909226 50.4776953 531.52631627 45 542 C44.56429688 542.83402344 44.12859375 543.66804687 43.6796875 544.52734375 C38.26521479 554.88470606 32.76747926 565.19724209 27.25 575.5 C26.93339417 576.09132721 26.61678833 576.68265442 26.29058838 577.29190063 C24.77372309 580.12395136 23.25268455 582.95343021 21.72070312 585.77734375 C20.57719453 587.91898868 19.46605499 590.07824531 18.38867188 592.25390625 C17.88400391 593.25292969 17.37933594 594.25195312 16.859375 595.28125 C16.2092041 596.6125293 16.2092041 596.6125293 15.54589844 597.97070312 C14 600 14 600 11.32128906 600.79492188 C10.55526367 600.86259766 9.78923828 600.93027344 9 601 C9 600.34 9 599.68 9 599 C7.77410156 599.31453125 6.54820312 599.6290625 5.28515625 599.953125 C-8.69771501 603.45537173 -22.73425292 605.95784945 -37 608 C-38.29164063 608.18691406 -39.58328125 608.37382813 -40.9140625 608.56640625 C-97.07801814 615.27019342 -155.82536772 602.94431492 -207 580 C-208.10214844 579.5059668 -208.10214844 579.5059668 -209.2265625 579.00195312 C-231.22539215 568.95808592 -251.82098098 555.26217727 -270.0859375 539.4765625 C-273.03635668 536.96910169 -276.05507762 534.64301349 -279.21875 532.4140625 C-281.10217108 530.91889051 -282.77378826 529.28070447 -284.45654297 527.56542969 C-286.35220175 525.6427843 -288.27985927 523.75433204 -290.20703125 521.86328125 C-291.74229703 520.34646502 -293.2774507 518.82953531 -294.8125 517.3125 C-295.60076172 516.54099609 -296.38902344 515.76949219 -297.20117188 514.97460938 C-297.94560547 514.23662109 -298.69003906 513.49863281 -299.45703125 512.73828125 C-300.13741455 512.06837158 -300.81779785 511.39846191 -301.51879883 510.70825195 C-303 509 -303 509 -303 507 C-303.66 507 -304.32 507 -305 507 C-306.39599396 505.47162731 -307.71587649 503.87349901 -309 502.25 C-310.2065625 500.73792969 -310.2065625 500.73792969 -311.4375 499.1953125 C-312.06978516 498.40108887 -312.06978516 498.40108887 -312.71484375 497.59082031 C-314.75959286 495.0597441 -316.88798871 492.60001323 -319 490.125 C-323.6274194 484.57067071 -327.81051497 478.81175879 -331.80957031 472.79101562 C-332.62438187 471.56512194 -333.44430118 470.34261211 -334.26855469 469.12304688 C-355.00364149 438.41236976 -370.26052062 404.25829013 -378.45458984 368.06494141 C-379.37445906 363.60078206 -379.37445906 363.60078206 -382 360 C-381.34 360 -380.68 360 -380 360 C-380.11069824 359.39341553 -380.22139648 358.78683105 -380.33544922 358.16186523 C-386.38065319 324.62387877 -387.75504837 291.32845884 -384.24365234 257.42333984 C-383.89467376 253.95243665 -383.63228048 250.47887949 -383.375 247 C-383.30023438 246.01 -383.22546875 245.02 -383.1484375 244 C-383.09945313 243.34 -383.05046875 242.68 -383 242 C-382.34 242 -381.68 242 -381 242 C-380.87753906 240.71222656 -380.75507813 239.42445313 -380.62890625 238.09765625 C-375.32710837 190.82406016 -349.60971789 143.38726695 -320 107 C-319.5875 106.49130371 -319.175 105.98260742 -318.75 105.45849609 C-303.57073247 86.83728338 -286.80314526 69.83435785 -267.671875 55.28662109 C-266.08521557 54.06557915 -264.52604491 52.80905949 -262.96875 51.55078125 C-228.83409071 24.23425623 -186.68862719 6.84950287 -144.48950195 -3.37133789 C-141.89497648 -3.99371451 -141.89497648 -3.99371451 -139 -5 C-136.47894173 -5.34682767 -133.96605761 -5.65797097 -131.4375 -5.9375 C-130.6837207 -6.02249756 -129.92994141 -6.10749512 -129.15332031 -6.19506836 C-127.56245551 -6.37426279 -125.97146922 -6.55238149 -124.38037109 -6.72949219 C-122.12282407 -6.98604215 -119.86808695 -7.25956213 -117.61328125 -7.5390625 C-78.39588289 -12.32048864 -38.23532128 -10.17257327 0 0 Z " fill="#C8C8C8" transform="translate(412,32)"/>
<path d="M0 0 C1.2490789 -0.00639748 1.2490789 -0.00639748 2.52339172 -0.01292419 C3.42844955 -0.01247101 4.33350739 -0.01201782 5.26599121 -0.0115509 C6.22575363 -0.01490952 7.18551605 -0.01826813 8.17436218 -0.02172852 C11.34749647 -0.03122906 14.52057796 -0.03318103 17.69372559 -0.03425598 C19.89803082 -0.03746862 22.10233584 -0.0408327 24.30664062 -0.04434204 C28.92672215 -0.05033067 33.54678498 -0.05218216 38.16687012 -0.05158997 C44.09203182 -0.05148823 50.01707399 -0.06515342 55.94220734 -0.08236217 C60.49404453 -0.09346899 65.04585267 -0.0955096 69.59770203 -0.09498024 C71.78261223 -0.09616185 73.96752315 -0.1005937 76.15242004 -0.10831261 C79.20468585 -0.11808802 82.25669012 -0.11524434 85.30895996 -0.10920715 C86.21401779 -0.11482666 87.11907562 -0.12044617 88.05155945 -0.12623596 C89.30063835 -0.11994423 89.30063835 -0.11994423 90.57495117 -0.11352539 C91.29612877 -0.11407016 92.01730637 -0.11461493 92.76033783 -0.1151762 C95.14463352 0.17756409 96.73802643 0.89600658 98.78747559 2.13371277 C100.00085449 3.89518738 100.00085449 3.89518738 101.01403809 6.03605652 C101.40091797 6.83438904 101.78779785 7.63272156 102.18640137 8.45524597 C102.59100586 9.31851501 102.99561035 10.18178406 103.41247559 11.07121277 C104.29607454 12.89761411 105.18153887 14.72311401 106.06872559 16.54777527 C106.5186084 17.47880066 106.96849121 18.40982605 107.43200684 19.36906433 C109.50915404 23.60566645 111.7023524 27.77781764 113.91247559 31.94621277 C114.53605957 33.12618835 114.53605957 33.12618835 115.17224121 34.33000183 C117.07487455 37.92403126 118.98828837 41.51211749 120.91247559 45.09465027 C125.2726121 53.21417932 129.46565889 61.40027802 133.55944824 69.65715027 C141.89573363 86.46893535 150.34686583 103.19848765 159.1854248 119.75187683 C160.13811288 121.53723945 161.08923318 123.32343965 162.03869629 125.11051941 C162.93587904 126.79917457 163.83660547 128.48595305 164.74133301 130.170578 C165.14070068 130.92282654 165.54006836 131.67507507 165.95153809 132.45011902 C166.30683594 133.1147113 166.66213379 133.77930359 167.02819824 134.46403503 C167.78747559 136.13371277 167.78747559 136.13371277 167.78747559 138.13371277 C168.44747559 138.46371277 169.10747559 138.79371277 169.78747559 139.13371277 C171.03896586 141.42168208 172.19841306 143.70350363 173.32653809 146.05168152 C174.04732866 147.52265789 174.76904398 148.99318141 175.49157715 150.46330261 C175.86818481 151.23253052 176.24479248 152.00175842 176.6328125 152.79429626 C178.50655428 156.59060923 180.43880043 160.35642952 182.37341309 164.12199402 C182.76112885 164.87775726 183.1488446 165.63352051 183.54830933 166.41218567 C184.75203452 168.75737494 185.95713334 171.10185425 187.16247559 173.44621277 C187.58188416 174.26263245 188.00129272 175.07905212 188.43341064 175.92021179 C193.23964616 185.2748263 198.05795465 194.62150851 202.98864746 203.91130066 C205.70356774 209.03941805 208.36882177 214.1921424 211.02185059 219.35246277 C211.59133926 220.4599588 211.59133926 220.4599588 212.17233276 221.58982849 C214.08450197 225.30986951 215.99425786 229.03113005 217.90124512 232.75382996 C218.61068461 234.13568292 219.32015593 235.51751955 220.02966309 236.89933777 C220.34908875 237.52465393 220.6685144 238.14997009 220.99761963 238.79423523 C223.14839453 242.97883551 225.43024852 247.06350217 227.78747559 251.13371277 C230.06651413 248.24882737 231.83021913 245.33487467 233.51013184 242.06730652 C234.03921143 241.04266296 234.56829102 240.01801941 235.11340332 238.96232605 C235.68647217 237.84325867 236.25954102 236.72419128 236.84997559 235.57121277 C237.46431549 234.37817436 238.07898897 233.18530768 238.69396973 231.99259949 C240.37358055 228.7327953 242.04856208 225.47063255 243.72265625 222.20799255 C245.54138322 218.6650924 247.36383785 215.1241105 249.18591309 211.58293152 C251.46524564 207.15237611 253.74421636 202.72163566 256.02185059 198.29020691 C260.95537682 188.69162914 265.89443088 179.09594463 270.84997559 169.50871277 C271.16128418 168.90638824 271.47259277 168.30406372 271.79333496 167.68348694 C275.39968785 160.70910888 279.03339419 153.75083841 282.72497559 146.82121277 C286.44663894 139.82979025 290.01012725 132.76846589 293.52819824 125.67277527 C296.23306682 120.21898829 298.94513532 114.76879563 301.66247559 109.32121277 C301.96585846 108.71292633 302.26924133 108.10463989 302.58181763 107.47792053 C306.70243434 99.22339701 310.88224402 91.00497861 315.2401123 82.87272644 C319.24625919 75.37284682 323.00029454 67.74557571 326.78747559 60.13371277 C329.68860144 54.30848036 332.5916494 48.48420821 335.49645996 42.66081238 C336.35785201 40.93297852 337.21852805 39.20478753 338.07849121 37.47624207 C342.98640735 27.61293183 347.95861728 17.79885681 353.19372559 8.10466003 C354.4295425 5.80094434 355.61834348 3.47197698 356.78747559 1.13371277 C392.75747559 1.13371277 428.72747559 1.13371277 465.78747559 1.13371277 C464.10757201 5.33347171 462.25216811 9.33561551 460.21716309 13.36418152 C459.86668915 14.06133774 459.51621521 14.75849396 459.15512085 15.47677612 C455.11889226 23.48943194 451.02066788 31.47028223 446.91247559 39.44621277 C446.51774048 40.21328552 446.12300537 40.98035828 445.71630859 41.77067566 C440.98810175 50.95786081 436.2418618 60.13431347 431.40856934 69.26676941 C427.87202707 75.95285603 424.39070379 82.66713416 420.91247559 89.38371277 C416.46413682 97.97228025 412.01095625 106.5582088 407.53747559 115.13371277 C407.04811523 116.07190857 406.55875488 117.01010437 406.05456543 117.97673035 C403.7462921 122.3976278 401.43088098 126.81454613 399.09997559 131.22355652 C398.66717285 132.04275574 398.23437012 132.86195496 397.78845215 133.70597839 C397.00564318 135.18604345 396.221374 136.66533816 395.43493652 138.14347839 C391.41665791 145.73791801 387.61572499 153.44242858 383.78747559 161.13371277 C380.92270068 166.88556854 378.05656141 172.6367414 375.18835449 178.3868866 C374.34062585 180.0873725 373.4936156 181.78821672 372.64733887 183.48942566 C367.28980928 194.25733474 361.81544779 204.95170056 356.18933105 215.58171082 C352.85340439 221.88915415 349.59662691 228.23701059 346.33898926 234.58512878 C339.1433306 248.60388239 331.87777422 262.58265812 324.46716309 276.48918152 C324.0797998 277.21750183 323.69243652 277.94582214 323.29333496 278.69621277 C322.59084794 280.01625746 321.88672539 281.3354348 321.18005371 282.65324402 C318.72040627 287.27293547 316.37202764 291.94595116 314.03747559 296.62980652 C309.88862866 304.95361174 305.66905235 313.23953302 301.41247559 321.50871277 C301.04341095 322.22638824 300.67434631 322.94406372 300.2940979 323.68348694 C295.68408461 332.63976798 290.99259144 341.53078772 286.03527832 350.3009491 C283.20170838 355.32942674 280.58063259 360.43590277 278.03088379 365.61320496 C272.79949325 376.21280503 267.26517089 386.66002903 261.78747559 397.13371277 C261.35177246 397.96773621 260.91606934 398.80175964 260.46716309 399.66105652 C255.03113053 410.05966073 249.51211782 420.41369153 243.97497559 430.75871277 C243.65409973 431.35858002 243.33322388 431.95844727 243.00262451 432.57649231 C241.48435902 435.41380029 239.96102369 438.24799206 238.42565918 441.07609558 C237.38806255 443.01273644 236.37696183 444.96400761 235.40319824 446.93351746 C234.98989258 447.74981628 234.57658691 448.56611511 234.15075684 449.40715027 C233.80955811 450.11017273 233.46835937 450.81319519 233.11682129 451.53752136 C231.78747559 453.13371277 231.78747559 453.13371277 229.45227051 454.17912292 C226.78747559 454.13371277 226.78747559 454.13371277 224.25695801 452.21818542 C221.35700075 448.59603417 219.32845764 444.92571131 217.27575684 440.78215027 C216.6560627 439.56188644 216.6560627 439.56188644 216.02384949 438.31697083 C214.70667294 435.71875698 213.40290817 433.11409402 212.09997559 430.50871277 C210.81801198 427.96665793 209.53326069 425.42602636 208.24821472 422.88552856 C207.38923795 421.18698618 206.53134347 419.48789604 205.67451477 417.78826904 C201.50868283 409.53891129 197.19779786 401.36863904 192.8767395 393.19987488 C191.35689364 390.31696662 189.85764834 387.42360934 188.36169434 384.52824402 C187.87507324 383.58787292 187.38845215 382.64750183 186.88708496 381.67863464 C185.92403577 379.81514111 184.96318994 377.95050764 184.00427246 376.08488464 C181.46899939 371.19470021 178.84710046 366.47212473 175.77893066 361.89421082 C174.70849515 359.9934695 174.22144583 358.26318103 173.78747559 356.13371277 C172.79747559 356.13371277 171.80747559 356.13371277 170.78747559 356.13371277 C170.72302246 355.34480652 170.65856934 354.55590027 170.59216309 353.74308777 C169.49576106 348.82524566 167.28568928 344.80071389 164.91247559 340.38371277 C164.24151855 339.09013855 164.24151855 339.09013855 163.55700684 337.77043152 C160.99379643 332.7628578 160.99379643 332.7628578 156.78747559 329.13371277 C156.59997559 326.00871277 156.59997559 326.00871277 156.78747559 323.13371277 C156.12747559 322.80371277 155.46747559 322.47371277 154.78747559 322.13371277 C153.46877593 319.5271242 152.23955783 316.91892616 151.03747559 314.25871277 C146.87565385 305.27443558 142.40047571 296.48383573 137.81286621 287.71061707 C133.93088614 280.27926547 130.0919551 272.82774086 126.28747559 265.35636902 C125.81312073 264.42578674 125.33876587 263.49520447 124.85003662 262.53642273 C122.93561464 258.7805833 121.0212078 255.02475967 119.11401367 251.26524353 C117.7741874 248.62460423 116.42969873 245.98638575 115.08435059 243.34855652 C114.67974609 242.54773148 114.2751416 241.74690643 113.85827637 240.92181396 C113.48267578 240.187285 113.1070752 239.45275604 112.72009277 238.69596863 C112.23050079 237.73224586 112.23050079 237.73224586 111.73101807 236.74905396 C110.42262958 234.50909777 109.10362157 233.29178576 106.78747559 232.13371277 C106.65993896 231.28857117 106.53240234 230.44342957 106.40100098 229.57267761 C105.63526858 225.28055404 103.95254358 221.96166499 101.97106934 218.11027527 C101.40719261 216.99101151 101.40719261 216.99101151 100.83192444 215.84913635 C99.63710771 213.48177821 98.43125064 211.12024946 97.22497559 208.75871277 C96.40978541 207.14840859 95.59532428 205.53773513 94.78161621 203.92668152 C92.79198367 199.99136679 90.79243462 196.0612396 88.78747559 192.13371277 C88.12747559 192.13371277 87.46747559 192.13371277 86.78747559 192.13371277 C86.6688768 191.40886688 86.55027802 190.684021 86.42808533 189.93721008 C85.77786185 187.09164024 84.84509169 184.88092392 83.53771973 182.27775574 C83.06955338 181.33842194 82.60138702 180.39908813 82.11903381 179.43128967 C81.60872116 178.42301117 81.09840851 177.41473267 80.57263184 176.37590027 C80.0428624 175.31823456 79.51309296 174.26056885 78.9672699 173.17085266 C77.84104732 170.92513239 76.71194648 168.68085362 75.5802002 166.43791199 C73.8821978 163.07257522 72.19239561 159.70323284 70.50427246 156.33293152 C65.16324177 145.68982058 59.75306339 135.08977069 54.17713928 124.56776428 C50.60045572 117.8110848 47.17600177 110.9869118 43.78747559 104.13371277 C39.41777291 95.33317594 34.97357703 86.58064857 30.35192871 77.90934753 C26.76526951 71.1589983 23.36185347 64.32138961 20.00915527 57.45207214 C19.61631348 56.65478699 19.22347168 55.85750183 18.81872559 55.03605652 C18.47390137 54.3295697 18.12907715 53.62308289 17.77380371 52.89518738 C16.79508338 50.96032004 16.79508338 50.96032004 14.78747559 49.13371277 C14.13909475 47.82792615 13.5409936 46.49678413 12.97497559 45.15324402 C10.73091938 39.96386405 8.29284113 34.88888398 5.78747559 29.82121277 C5.36208496 28.94142761 4.93669434 28.06164246 4.49841309 27.15519714 C2.35201983 22.81961445 0.47017702 19.37582013 -3.21252441 16.13371277 C-3.90002441 14.07121277 -3.90002441 14.07121277 -4.21252441 12.13371277 C-5.15419961 9.05957919 -5.15419961 9.05957919 -6.77502441 6.07121277 C-8.21252441 3.13371277 -8.21252441 3.13371277 -8.21252441 1.13371277 C-5.40649543 0.33936102 -2.91291184 0.00676891 0 0 Z " fill="#797B7C" transform="translate(195.2125244140625,176.8662872314453)"/>
<path d="M0 0 C3.08865846 -0.29666769 5.97687779 -0.39875598 9.06787109 -0.37231445 C10.47781593 -0.37779045 10.47781593 -0.37779045 11.91624451 -0.38337708 C15.03549046 -0.39150842 18.15422104 -0.37784891 21.2734375 -0.36328125 C23.43576049 -0.36276287 25.59808397 -0.36327972 27.76040649 -0.36479187 C32.29835013 -0.36470202 36.83611656 -0.35424915 41.37402344 -0.33618164 C47.19389497 -0.3135212 53.01350678 -0.31294421 58.83341026 -0.31969929 C63.30120149 -0.32303995 67.76893342 -0.31640687 72.23671341 -0.30657005 C74.38254104 -0.30271741 76.52837527 -0.3015701 78.67420578 -0.3031559 C81.67404502 -0.30352643 84.67355067 -0.29090859 87.67333984 -0.2746582 C88.56283829 -0.27713562 89.45233673 -0.27961304 90.36878967 -0.28216553 C91.18757095 -0.27508072 92.00635223 -0.26799591 92.84994507 -0.26069641 C93.91348489 -0.25761711 93.91348489 -0.25761711 94.99851036 -0.25447559 C97.33040833 0.04200914 98.96542574 0.85016714 101 2 C100.67 3.32 100.34 4.64 100 6 C99.505 4.515 99.505 4.515 99 3 C65.67 3 32.34 3 -2 3 C-1.34 2.01 -0.68 1.02 0 0 Z " fill="#757676" transform="translate(193,177)"/>
<path d="M0 0 C0.99 0 1.98 0 3 0 C3.25056152 0.50635986 3.50112305 1.01271973 3.75927734 1.53442383 C8.49614477 11.09301413 13.27857929 20.62338342 18.25 30.0625 C18.66403076 30.85060059 19.07806152 31.63870117 19.50463867 32.45068359 C21.28717401 35.82710351 23.08677991 39.18555459 24.99609375 42.4921875 C25.55425781 43.46414063 26.11242187 44.43609375 26.6875 45.4375 C27.16574219 46.24058594 27.64398438 47.04367187 28.13671875 47.87109375 C29.17096597 50.42161292 28.76299704 51.42854193 28 54 C27.68885254 53.40276123 27.37770508 52.80552246 27.05712891 52.19018555 C25.58015354 49.35574787 24.10266053 46.52158055 22.625 43.6875 C22.08278809 42.64746826 21.54057617 41.60743652 20.98193359 40.53588867 C17.54712488 33.95208671 14.0933621 27.37867269 10.625 20.8125 C6.98700689 13.92105225 3.43489243 6.99545166 0 0 Z " fill="#686A6A" transform="translate(393,376)"/>
<path d="M0 0 C0.495 0.99 0.495 0.99 1 2 C0.26586914 3.65039062 0.26586914 3.65039062 -0.96484375 5.65625 C-1.42729492 6.4186499 -1.88974609 7.1810498 -2.36621094 7.96655273 C-3.14399902 9.22060913 -3.14399902 9.22060913 -3.9375 10.5 C-4.47020508 11.37277588 -5.00291016 12.24555176 -5.55175781 13.14477539 C-7.35967066 16.101606 -9.17965484 19.05080894 -11 22 C-12.36117253 24.21714382 -13.72183647 26.43459995 -15.08203125 28.65234375 C-18.3910831 34.04384815 -21.7103104 39.42902837 -25.03320312 44.81201172 C-28.36035324 50.20500156 -31.68003338 55.60258566 -35 61 C-38.78125 60.2578125 -38.78125 60.2578125 -40.75 57.9375 C-41.36875 56.9784375 -41.36875 56.9784375 -42 56 C-40.02 56.66 -38.04 57.32 -36 58 C-29.19669546 47.05280232 -22.43163304 36.08444863 -15.75 25.0625 C-10.62971488 16.62068112 -5.41060204 8.25904068 0 0 Z " fill="#B9B8B7" transform="translate(526,111)"/>
<path d="M0 0 C3 1 3 1 4.34692383 3.14208984 C4.79575928 4.07230957 5.24459473 5.0025293 5.70703125 5.9609375 C6.4640332 7.50587891 6.4640332 7.50587891 7.23632812 9.08203125 C8.0165332 10.71205078 8.0165332 10.71205078 8.8125 12.375 C9.8377986 14.48797278 10.86513514 16.59995791 11.89453125 18.7109375 C12.40064941 19.75217773 12.90676758 20.79341797 13.42822266 21.86621094 C15.46557078 25.92824892 17.66417828 29.88953783 19.9050293 33.84228516 C21 36 21 36 21 38 C21.66 38.33 22.32 38.66 23 39 C24.10546875 40.70703125 24.10546875 40.70703125 25.1875 42.8125 C25.55230469 43.49957031 25.91710937 44.18664062 26.29296875 44.89453125 C27.12087895 47.35996549 26.85276722 48.58292094 26 51 C23 46.25 23 46.25 23 44 C21.515 43.505 21.515 43.505 20 43 C19.30854372 40.95156076 18.62890291 38.89857909 18 36.83007812 C15.95085399 31.03083483 12.86939168 25.6769566 10 20.25 C9.36400736 19.03285287 8.72858687 17.8154066 8.09375 16.59765625 C4.84123685 10.33906463 4.84123685 10.33906463 1.296875 4.24511719 C0 2 0 2 0 0 Z " fill="#666766" transform="translate(342,277)"/>
<path d="M0 0 C2.43827661 2.2229139 3.90568323 4.40009585 5.41796875 7.32421875 C5.86390381 8.18063965 6.30983887 9.03706055 6.76928711 9.91943359 C7.23729736 10.83289551 7.70530762 11.74635742 8.1875 12.6875 C8.6729126 13.62416504 9.1583252 14.56083008 9.65844727 15.52587891 C12.95498377 21.90609698 16.20020298 28.31237922 19.36206055 34.76049805 C20.89038427 37.86230723 22.50288482 40.86029169 24.28515625 43.8203125 C24.85105469 44.86960937 25.41695313 45.91890625 26 47 C25.67 47.66 25.34 48.32 25 49 C21.66534724 45.89890139 19.88886357 42.21850103 17.875 38.19140625 C17.48683105 37.42827621 17.09866211 36.66514618 16.69873047 35.87889099 C15.46028714 33.44285318 14.22953288 31.0030458 13 28.5625 C11.7697827 26.12589004 10.53784524 23.69021036 9.30126953 21.25682068 C8.53274336 19.74402405 7.76792837 18.22933479 7.00732422 16.71253967 C4.08519226 10.39116815 4.08519226 10.39116815 -1 6 C-0.67 4.02 -0.34 2.04 0 0 Z " fill="#6A6B6B" transform="translate(303,403)"/>
<path d="M0 0 C0.66 0 1.32 0 2 0 C0.68081552 4.26925946 -0.96073388 8.10178796 -3.0390625 12.0546875 C-3.61914062 13.16328125 -4.19921875 14.271875 -4.796875 15.4140625 C-5.40015625 16.55617187 -6.0034375 17.69828125 -6.625 18.875 C-7.54152344 20.62296875 -7.54152344 20.62296875 -8.4765625 22.40625 C-9.98040502 25.27294981 -11.48833018 28.13742221 -13 31 C-13.66 31 -14.32 31 -15 31 C-13.68081552 26.73074054 -12.03926612 22.89821204 -9.9609375 18.9453125 C-9.38085938 17.83671875 -8.80078125 16.728125 -8.203125 15.5859375 C-7.29820312 13.87277344 -7.29820312 13.87277344 -6.375 12.125 C-5.45847656 10.37703125 -5.45847656 10.37703125 -4.5234375 8.59375 C-3.01959498 5.72705019 -1.51166982 2.86257779 0 0 Z " fill="#676869" transform="translate(630,233)"/>
<path d="M0 0 C0.99 0 1.98 0 3 0 C3.28198242 0.56920166 3.56396484 1.13840332 3.85449219 1.72485352 C5.15082391 4.33848547 6.45038751 6.95049793 7.75 9.5625 C8.1934375 10.45775391 8.636875 11.35300781 9.09375 12.27539062 C11.07146844 16.24536955 13.05121676 20.13251421 15.390625 23.90234375 C17 27 17 27 16.60058594 29.19360352 C16.3032959 30.08776978 16.3032959 30.08776978 16 31 C10.55652551 20.72039416 5.1272359 10.44205359 0 0 Z " fill="#6B6D6C" transform="translate(308,212)"/>
<path d="M0 0 C2.25327597 2.07426061 3.6546454 3.96442341 4.97265625 6.72265625 C5.31490234 7.42583984 5.65714844 8.12902344 6.00976562 8.85351562 C6.35716797 9.58248047 6.70457031 10.31144531 7.0625 11.0625 C7.75801099 12.51350183 8.45708091 13.96280456 9.16015625 15.41015625 C9.46574463 16.05090088 9.77133301 16.69164551 10.08618164 17.35180664 C11.00648286 19.19017868 11.00648286 19.19017868 13 21 C13.8563027 23.63233792 14.38929927 26.29546818 15 29 C14.34 29 13.68 29 13 29 C12.67725098 28.34926514 12.35450195 27.69853027 12.02197266 27.02807617 C10.55841352 24.08017021 9.09174421 21.13382242 7.625 18.1875 C7.11710937 17.16333984 6.60921875 16.13917969 6.0859375 15.08398438 C5.59609375 14.10107422 5.10625 13.11816406 4.6015625 12.10546875 C4.15119629 11.19949951 3.70083008 10.29353027 3.23681641 9.36010742 C1.96740334 6.83724079 1.96740334 6.83724079 0 4 C0 2.68 0 1.36 0 0 Z " fill="#6A6B6B" transform="translate(337,469)"/>
<path d="M0 0 C0.66 0 1.32 0 2 0 C3.88247683 3.64143156 5.75179486 7.28928166 7.60913086 10.94360352 C8.24290848 12.18600242 8.8802632 13.42658326 9.52124023 14.6652832 C10.44150256 16.44521738 11.34791026 18.23229325 12.25390625 20.01953125 C12.80377197 21.09307861 13.3536377 22.16662598 13.92016602 23.27270508 C15 26 15 26 14 29 C0 4.416122 0 4.416122 0 0 Z " fill="#636464" transform="translate(327,247)"/>
<path d="M0 0 C0.66 0 1.32 0 2 0 C0.70242463 4.15116435 -0.85943494 7.95590318 -2.8203125 11.8359375 C-3.35527344 12.89941406 -3.89023437 13.96289062 -4.44140625 15.05859375 C-4.99699219 16.15300781 -5.55257812 17.24742187 -6.125 18.375 C-6.68832031 19.49261719 -7.25164063 20.61023438 -7.83203125 21.76171875 C-9.21774567 24.5096609 -10.60716947 27.2556598 -12 30 C-12.33 30 -12.66 30 -13 30 C-13.22288301 26.19258956 -12.74188039 23.90369048 -10.91796875 20.56640625 C-10.48033203 19.75236328 -10.04269531 18.93832031 -9.59179688 18.09960938 C-9.12837891 17.26236328 -8.66496094 16.42511719 -8.1875 15.5625 C-7.28474374 13.89735899 -6.38239069 12.23199932 -5.48046875 10.56640625 C-5.0529834 9.78410645 -4.62549805 9.00180664 -4.18505859 8.19580078 C-2.72621047 5.49269405 -1.35020293 2.75872027 0 0 Z " fill="#646465" transform="translate(529,223)"/>
<path d="M0 0 C4.12877912 3.72454707 6.21402546 8.69485577 8.75 13.5625 C9.26949219 14.53380859 9.78898437 15.50511719 10.32421875 16.50585938 C10.81019531 17.43333984 11.29617188 18.36082031 11.796875 19.31640625 C12.24385742 20.16662354 12.69083984 21.01684082 13.15136719 21.89282227 C13.43141602 22.58819092 13.71146484 23.28355957 14 24 C13.67 24.66 13.34 25.32 13 26 C12.34 25.67 11.68 25.34 11 25 C11 24.34 11 23.68 11 23 C10.01 23 9.02 23 8 23 C7.90847656 22.15824219 7.81695312 21.31648437 7.72265625 20.44921875 C6.89920191 16.51889342 5.32382234 13.31246838 3.4375 9.8125 C0 3.38820939 0 3.38820939 0 0 Z " fill="#707070" transform="translate(358,510)"/>
<path d="M0 0 C0.66 0 1.32 0 2 0 C7.859375 11.71875 7.859375 11.71875 8.91601562 13.84765625 C9.6586491 15.32221858 10.41871696 16.78809248 11.19335938 18.24609375 C12.18577223 20.13526521 13.09987601 22.06515404 14 24 C13.67 24.66 13.34 25.32 13 26 C10.77509381 23.94475326 9.3524539 22.06575058 8.02734375 19.34765625 C7.68509766 18.65349609 7.34285156 17.95933594 6.99023438 17.24414062 C6.64283203 16.52419922 6.29542969 15.80425781 5.9375 15.0625 C5.4105957 13.98838867 5.4105957 13.98838867 4.87304688 12.89257812 C4.21718922 11.55482689 3.56381557 10.21585268 2.91381836 8.87524414 C2.26873934 7.55147926 1.58884908 6.24440778 0.88500977 4.95092773 C0 3 0 3 0 0 Z " fill="#6B6D6D" transform="translate(243,286)"/>
<path d="M0 0 C14.19 0.33 28.38 0.66 43 1 C43 1.33 43 1.66 43 2 C37.51958555 2.21725331 32.03895996 2.41407202 26.55712891 2.59204102 C24.69267195 2.65544358 22.82839559 2.72441264 20.96435547 2.79907227 C18.28380992 2.90546579 15.60325093 2.99177792 12.921875 3.07421875 C11.67322662 3.1302552 11.67322662 3.1302552 10.39935303 3.18742371 C9.61884583 3.20767105 8.83833862 3.2279184 8.03417969 3.2487793 C7.00825714 3.28541939 7.00825714 3.28541939 5.96160889 3.32279968 C4 3 4 3 0 0 Z " fill="#D2D2D2" transform="translate(313,638)"/>
<path d="M0 0 C0.33 0 0.66 0 1 0 C1.94014291 12.02039864 2.11114233 23.94723146 2 36 C1.67 36 1.34 36 1 36 C1 34.02 1 32.04 1 30 C0.34 30 -0.32 30 -1 30 C-0.67 20.1 -0.34 10.2 0 0 Z " fill="#B5B5B5" transform="translate(115,319)"/>
<path d="M0 0 C-0.66 0 -1.32 0 -2 0 C-2 0.66 -2 1.32 -2 2 C-2.70382813 2.14695313 -3.40765625 2.29390625 -4.1328125 2.4453125 C-11.5982536 4.14111766 -18.22475832 6.64500626 -25.1640625 9.79296875 C-28 11 -28 11 -30 11 C-30 10.34 -30 9.68 -30 9 C-25.75700029 7.29450674 -21.5046216 5.61376706 -17.25 3.9375 C-16.0434375 3.45216797 -14.836875 2.96683594 -13.59375 2.46679688 C-12.43359375 2.01240234 -11.2734375 1.55800781 -10.078125 1.08984375 C-9.00981445 0.66566162 -7.94150391 0.24147949 -6.84082031 -0.19555664 C-3.98257456 -1.00493441 -2.72300912 -1.05990545 0 0 Z " fill="#BCBCBA" transform="translate(239,39)"/>
<path d="M0 0 C1.22493466 3.67480397 0.68777411 4.26523456 -0.984375 7.6328125 C-1.42523437 8.52097656 -1.86609375 9.40914063 -2.3203125 10.32421875 C-2.79210937 11.24847656 -3.26390625 12.17273438 -3.75 13.125 C-4.20632813 14.05699219 -4.66265625 14.98898437 -5.1328125 15.94921875 C-5.57882812 16.83480469 -6.02484375 17.72039062 -6.484375 18.6328125 C-6.89397461 19.44637207 -7.30357422 20.25993164 -7.72558594 21.09814453 C-9 23 -9 23 -12 24 C-10.29465708 19.47018288 -8.17111788 15.19363666 -6 10.875 C-5.64421875 10.15957031 -5.2884375 9.44414062 -4.921875 8.70703125 C-4.57640625 8.01738281 -4.2309375 7.32773437 -3.875 6.6171875 C-3.56304688 5.99440918 -3.25109375 5.37163086 -2.9296875 4.72998047 C-2 3 -2 3 0 0 Z " fill="#666768" transform="translate(524,440)"/>
<path d="M0 0 C0.33 0.66 0.66 1.32 1 2 C-0.17633324 4.64972033 -1.40817981 7.18583676 -2.75 9.75 C-3.1109375 10.45382812 -3.471875 11.15765625 -3.84375 11.8828125 C-4.55494203 13.26912161 -5.26907375 14.65392709 -5.98632812 16.03710938 C-7.35035348 18.67843016 -8.67727495 21.33780654 -10 24 C-10.33 24 -10.66 24 -11 24 C-10.51481161 18.24491923 -8.87675662 14.19339009 -6.0625 9.1875 C-5.70220703 8.52041016 -5.34191406 7.85332031 -4.97070312 7.16601562 C-3.50073837 4.48326226 -2.17356386 2.17356386 0 0 Z " fill="#686869" transform="translate(484,314)"/>
<path d="M0 0 C0.66 0 1.32 0 2 0 C3.54074107 2.73929378 5.05392858 5.49287839 6.5625 8.25 C7.00013672 9.02730469 7.43777344 9.80460937 7.88867188 10.60546875 C8.50258789 11.73662109 8.50258789 11.73662109 9.12890625 12.890625 C9.70233765 13.92751465 9.70233765 13.92751465 10.28735352 14.98535156 C11.14174203 17.40070408 10.84205836 18.62077693 10 21 C8.32296194 18.06830554 6.66020482 15.12875476 5 12.1875 C4.28457031 10.93743164 4.28457031 10.93743164 3.5546875 9.66210938 C3.10351562 8.85966797 2.65234375 8.05722656 2.1875 7.23046875 C1.76855469 6.49207764 1.34960938 5.75368652 0.91796875 4.99291992 C0 3 0 3 0 0 Z " fill="#666767" transform="translate(382,353)"/>
<path d="M0 0 C0.99 0 1.98 0 3 0 C4.54074107 2.73929378 6.05392858 5.49287839 7.5625 8.25 C8.00013672 9.02730469 8.43777344 9.80460937 8.88867188 10.60546875 C9.50258789 11.73662109 9.50258789 11.73662109 10.12890625 12.890625 C10.70233765 13.92751465 10.70233765 13.92751465 11.28735352 14.98535156 C12.14174203 17.40070408 11.84205836 18.62077693 11 21 C9.16327681 17.68936862 7.33119238 14.37619334 5.5 11.0625 C4.97535156 10.11697266 4.45070313 9.17144531 3.91015625 8.19726562 C3.16572266 6.84858398 3.16572266 6.84858398 2.40625 5.47265625 C1.94541016 4.64000244 1.48457031 3.80734863 1.00976562 2.94946289 C0 1 0 1 0 0 Z " fill="#656767" transform="translate(369,330)"/>
<path d="M0 0 C0.71484375 1.546875 0.71484375 1.546875 1 4 C-0.05391226 6.53857885 -1.13965574 8.84495527 -2.4375 11.25 C-2.77587891 11.8996875 -3.11425781 12.549375 -3.46289062 13.21875 C-4.29786887 14.81814494 -5.14753114 16.40985859 -6 18 C-6.66 18 -7.32 18 -8 18 C-7.74438677 15.6568787 -7.40729228 13.32156597 -7 11 C-6.34 10.67 -5.68 10.34 -5 10 C-4.06606559 8.344389 -3.19897217 6.65049478 -2.375 4.9375 C-1.92898438 4.01839844 -1.48296875 3.09929687 -1.0234375 2.15234375 C-0.68570313 1.44207031 -0.34796875 0.73179687 0 0 Z " fill="#6A6B6B" transform="translate(596,299)"/>
<path d="M0 0 C0.66 0 1.32 0 2 0 C3.34640983 2.38927637 4.67709053 4.7852573 6 7.1875 C6.3815625 7.86103516 6.763125 8.53457031 7.15625 9.22851562 C9.1906511 12.95219622 10.54323525 15.62865388 10 20 C7.35109525 16.6827562 5.33538658 13.16520923 3.3125 9.4375 C2.68988281 8.30183594 2.06726563 7.16617188 1.42578125 5.99609375 C0 3 0 3 0 0 Z " fill="#646565" transform="translate(295,185)"/>
<path d="M0 0 C1 3 1 3 -0.43359375 6.35546875 C-1.09148807 7.6380304 -1.75989743 8.91524057 -2.4375 10.1875 C-2.77587891 10.84169922 -3.11425781 11.49589844 -3.46289062 12.16992188 C-4.29969098 13.78459299 -5.14869746 15.39292763 -6 17 C-6.66 17 -7.32 17 -8 17 C-8.1875 14.6875 -8.1875 14.6875 -8 12 C-7.01155955 10.98857256 -6.00947803 9.99043127 -5 9 C-4.0585702 7.46454126 -3.16365136 5.89978226 -2.3125 4.3125 C-1.87550781 3.50425781 -1.43851563 2.69601562 -0.98828125 1.86328125 C-0.66214844 1.24839844 -0.33601562 0.63351562 0 0 Z " fill="#69696A" transform="translate(556,378)"/>
<path d="M0 0 C3.26309597 2.72931793 4.90051326 6.32166572 6.75 10.0625 C7.07871094 10.69994141 7.40742188 11.33738281 7.74609375 11.99414062 C8.56378581 13.63124982 9.28949826 15.31360322 10 17 C9.67 17.66 9.34 18.32 9 19 C5.83233631 17.41616816 4.88807381 14.24747651 3.375 11.1875 C3.05015625 10.55779297 2.7253125 9.92808594 2.390625 9.27929688 C0.68142751 5.85731115 0 3.90211321 0 0 Z " fill="#666868" transform="translate(222,244)"/>
<path d="M0 0 C0.66 0 1.32 0 2 0 C1.28028381 3.75345656 -0.33112202 6.86091969 -2.0625 10.25 C-2.61035156 11.32765625 -3.15820312 12.4053125 -3.72265625 13.515625 C-4.14417969 14.33546875 -4.56570313 15.1553125 -5 16 C-5.66 16 -6.32 16 -7 16 C-5.35433477 10.31497465 -2.70967216 5.23318364 0 0 Z " fill="#656766" transform="translate(496,493)"/>
<path d="M0 0 C0.66 0 1.32 0 2 0 C1.28028381 3.75345656 -0.33112202 6.86091969 -2.0625 10.25 C-2.61035156 11.32765625 -3.15820312 12.4053125 -3.72265625 13.515625 C-4.14417969 14.33546875 -4.56570313 15.1553125 -5 16 C-5.66 16 -6.32 16 -7 16 C-5.35433477 10.31497465 -2.70967216 5.23318364 0 0 Z " fill="#676768" transform="translate(510,466)"/>
<path d="M0 0 C0.33 0 0.66 0 1 0 C0.45721733 8.01470585 -0.13505261 16.01303902 -1 24 C-1.33 24 -1.66 24 -2 24 C-2.05787784 20.37506666 -2.0935542 16.75025143 -2.125 13.125 C-2.14175781 12.09246094 -2.15851562 11.05992187 -2.17578125 9.99609375 C-2.18222656 9.00996094 -2.18867188 8.02382813 -2.1953125 7.0078125 C-2.20578613 6.09660645 -2.21625977 5.18540039 -2.22705078 4.24658203 C-2 2 -2 2 0 0 Z " fill="#D0D0D0" transform="translate(31,279)"/>
<path d="M0 0 C1.32 0.33 2.64 0.66 4 1 C3.01 1 2.02 1 1 1 C0.7525 1.845625 0.505 2.69125 0.25 3.5625 C-1.13973627 7.38427474 -2.91120838 10.51868063 -5 14 C-5.66 13.01 -6.32 12.02 -7 11 C-6.125 8.3125 -6.125 8.3125 -5 6 C-4.34 6 -3.68 6 -3 6 C-2.01 4.02 -1.02 2.04 0 0 Z " fill="#808283" transform="translate(553,180)"/>
<path d="M0 0 C1.06528748 2.73019786 1.07998186 3.79298812 0.00390625 6.578125 C-0.47175781 7.45984375 -0.94742188 8.3415625 -1.4375 9.25 C-1.91058594 10.14203125 -2.38367188 11.0340625 -2.87109375 11.953125 C-3.24363281 12.62859375 -3.61617187 13.3040625 -4 14 C-4.66 14 -5.32 14 -6 14 C-5.71872579 12.51882199 -5.42466268 11.04006751 -5.125 9.5625 C-4.96257813 8.73878906 -4.80015625 7.91507812 -4.6328125 7.06640625 C-4.42398438 6.38449219 -4.21515625 5.70257813 -4 5 C-3.34 4.67 -2.68 4.34 -2 4 C-0.86649466 1.98330173 -0.86649466 1.98330173 0 0 Z " fill="#6E6E6F" transform="translate(568,354)"/>
<path d="M0 0 C2.50155273 1.25077637 2.92212548 2.35027305 4.1875 4.8125 C4.55230469 5.49957031 4.91710937 6.18664062 5.29296875 6.89453125 C6.12087895 9.35996549 5.85276722 10.58292094 5 13 C2 8.25 2 8.25 2 6 C1.01 5.67 0.02 5.34 -1 5 C-1.6875 2.9375 -1.6875 2.9375 -2 1 C-1.34 0.67 -0.68 0.34 0 0 Z " fill="#6D6E6E" transform="translate(363,315)"/>
<path d="M0 0 C1.02018585 2.6686569 1.06982104 3.80064256 0.109375 6.54296875 C-0.33921875 7.41566406 -0.7878125 8.28835938 -1.25 9.1875 C-1.90742187 10.50814453 -1.90742187 10.50814453 -2.578125 11.85546875 C-4 14 -4 14 -7 15 C-6.53118987 10.78070884 -6.08710577 8.8496361 -3 6 C-1.95377125 4.02379014 -0.94560065 2.0262871 0 0 Z " fill="#686969" transform="translate(613,266)"/>
<path d="M0 0 C0.66 0 1.32 0 2 0 C1.28028381 3.75345656 -0.33112202 6.86091969 -2.0625 10.25 C-2.61035156 11.32765625 -3.15820312 12.4053125 -3.72265625 13.515625 C-4.14417969 14.33546875 -4.56570313 15.1553125 -5 16 C-6.25348607 13.04893565 -6.01044806 12.02593537 -4.78515625 8.984375 C-4.21667969 7.91703125 -3.64820313 6.8496875 -3.0625 5.75 C-2.49660156 4.67234375 -1.93070312 3.5946875 -1.34765625 2.484375 C-0.90292969 1.66453125 -0.45820313 0.8446875 0 0 Z " fill="#696B6B" transform="translate(454,370)"/>
<path d="M0 0 C2.68125418 2.38246339 4.11423459 4.8545504 5.6875 8.0625 C6.12449219 8.94035156 6.56148437 9.81820312 7.01171875 10.72265625 C8 13 8 13 8 15 C7.34 15 6.68 15 6 15 C4.99267601 13.06629769 3.99436712 11.12789694 3 9.1875 C2.443125 8.10855469 1.88625 7.02960938 1.3125 5.91796875 C0 3 0 3 0 0 Z " fill="#666767" transform="translate(196,194)"/>
<path d="M0 0 C-0.33 1.32 -0.66 2.64 -1 4 C-1.33 3.01 -1.66 2.02 -2 1 C-8.27 1 -14.54 1 -21 1 C-21 0.67 -21 0.34 -21 0 C-18.25034772 -0.19511725 -15.50057868 -0.38136433 -12.75 -0.5625 C-11.97269531 -0.61857422 -11.19539063 -0.67464844 -10.39453125 -0.73242188 C-9.64042969 -0.78076172 -8.88632812 -0.82910156 -8.109375 -0.87890625 C-7.41811523 -0.9260376 -6.72685547 -0.97316895 -6.01464844 -1.02172852 C-3.86382928 -0.99853136 -2.05915129 -0.5995764 0 0 Z " fill="#525455" transform="translate(294,179)"/>
<path d="M0 0 C2.77398263 3.46747828 4.95912413 7.06402511 7 11 C6.67 11.66 6.34 12.32 6 13 C3.01947605 10.44526518 1.53659812 7.58539561 0 4 C0 2.68 0 1.36 0 0 Z " fill="#676767" transform="translate(294,385)"/>
<path d="M0 0 C1.28222189 3.03070628 0.98589446 4.03596914 -0.25 7.1875 C-2 10 -2 10 -5 11 C-4.67 9.02 -4.34 7.04 -4 5 C-3.34 5 -2.68 5 -2 5 C-1.34 3.35 -0.68 1.7 0 0 Z " fill="#69696A" transform="translate(637,220)"/>
<path d="M0 0 C1 3 1 3 0.00390625 5.48046875 C-0.47175781 6.37378906 -0.94742188 7.26710937 -1.4375 8.1875 C-1.91058594 9.08855469 -2.38367188 9.98960937 -2.87109375 10.91796875 C-3.24363281 11.60503906 -3.61617187 12.29210937 -4 13 C-4.66 13 -5.32 13 -6 13 C-4.58707905 8.1725201 -2.57025846 4.2837641 0 0 Z " fill="#616263" transform="translate(658,180)"/>
<path d="M0 0 C3.0916909 2.52956528 3.90931332 5.22454612 5 9 C3.02 8.01 1.04 7.02 -1 6 C-0.67 4.02 -0.34 2.04 0 0 Z " fill="#6F706F" transform="translate(353,500)"/>
<path d="M0 0 C0.75 1.5625 0.75 1.5625 1 4 C-0.13084437 6.50286409 -1.52139516 8.67007722 -3 11 C-3.99 10.67 -4.98 10.34 -6 10 C-5.566875 9.46375 -5.13375 8.9275 -4.6875 8.375 C-2.79312397 5.70884115 -1.40687194 2.94773168 0 0 Z " fill="#656565" transform="translate(430,619)"/>
<path d="M0 0 C0.88336837 2.4667645 1.1312406 3.63859372 0.22265625 6.140625 C-0.16019531 6.83671875 -0.54304688 7.5328125 -0.9375 8.25 C-1.31777344 8.95640625 -1.69804687 9.6628125 -2.08984375 10.390625 C-2.39019531 10.92171875 -2.69054687 11.4528125 -3 12 C-3.66 12 -4.32 12 -5 12 C-4.35550393 8.98782888 -3.34977818 6.48344164 -1.9375 3.75 C-1.57527344 3.04359375 -1.21304687 2.3371875 -0.83984375 1.609375 C-0.56269531 1.07828125 -0.28554688 0.5471875 0 0 Z " fill="#69696A" transform="translate(473,537)"/>
<path d="M0 0 C0.66 0 1.32 0 2 0 C1.43454163 3.95820859 0.19097652 6.6659053 -2 10 C-2.6875 8.375 -2.6875 8.375 -3 6 C-1.5625 2.75 -1.5625 2.75 0 0 Z " fill="#6A6A6B" transform="translate(536,209)"/>
<path d="M0 0 C0.66 0.99 1.32 1.98 2 3 C0.68 4.65 -0.64 6.3 -2 8 C-2.66 7.67 -3.32 7.34 -4 7 C-3.39816251 4.97954558 -2.72693904 2.97888961 -2 1 C-1.34 0.67 -0.68 0.34 0 0 Z " fill="#737475" transform="translate(541,202)"/>
<path d="M0 0 C1.5625 1.125 1.5625 1.125 3 3 C2.8125 6.125 2.8125 6.125 2 9 C1.01 9.495 1.01 9.495 0 10 C-1.03366148 6.25297715 -1.25733598 3.77200794 0 0 Z " fill="#848585" transform="translate(192,183)"/>
<path d="M0 0 C0.33 0.66 0.66 1.32 1 2 C-1.66666667 4.66666667 -4.33333333 7.33333333 -7 10 C-5.94124926 6.59687262 -4.99097846 3.98646769 -3 1 C-2.01 0.67 -1.02 0.34 0 0 Z " fill="#808182" transform="translate(542,407)"/>
<path d="M0 0 C0.66 0 1.32 0 2 0 C0.77472971 4.05281712 -0.69880494 7.44360764 -3 11 C-3.75 9.4375 -3.75 9.4375 -4 7 C-2.86915563 4.49713591 -1.47860484 2.32992278 0 0 Z " fill="#646565" transform="translate(465,349)"/>
<path d="M0 0 C0.66 0 1.32 0 2 0 C2.67154933 1.28913487 3.33708859 2.58140204 4 3.875 C4.37125 4.59429687 4.7425 5.31359375 5.125 6.0546875 C6 8 6 8 6 10 C5.34 10 4.68 10 4 10 C0 3.375 0 3.375 0 0 Z " fill="#6B6C6B" transform="translate(327,247)"/>
<path d="M0 0 C0.99 0.33 1.98 0.66 3 1 C0.525 5.455 0.525 5.455 -2 10 C-3.19156292 5.23374833 -2.3415946 4.12120649 0 0 Z " fill="#646465" transform="translate(545,191)"/>
<path d="M0 0 C0.66 0 1.32 0 2 0 C0.90931332 3.77545388 0.0916909 6.47043472 -3 9 C-3.33 8.34 -3.66 7.68 -4 7 C-3.22265625 5.2734375 -3.22265625 5.2734375 -2.0625 3.375 C-1.381875 2.26125 -0.70125 1.1475 0 0 Z " fill="#6D6D6E" transform="translate(516,455)"/>
<path d="M0 0 C3.0916909 2.52956528 3.90931332 5.22454612 5 9 C2 8 2 8 0.8125 6.1875 C0 4 0 4 0 0 Z " fill="#747576" transform="translate(305,203)"/>
<path d="M0 0 C0.99 0 1.98 0 3 0 C4.25664978 2.90600261 5 4.79604584 5 8 C4.34 8 3.68 8 3 8 C0 2.25 0 2.25 0 0 Z " fill="#707170" transform="translate(187,178)"/>
<path d="M0 0 C0.6875 1.6875 0.6875 1.6875 1 4 C-0.3125 6.75 -0.3125 6.75 -2 9 C-2.66 9 -3.32 9 -4 9 C-2.94124926 5.59687262 -1.99097846 2.98646769 0 0 Z " fill="#626262" transform="translate(456,570)"/>
<path d="M0 0 C0.93065133 2.60582371 1.14917407 3.64198224 0.0625 6.25 C-0.4634375 7.11625 -0.4634375 7.11625 -1 8 C-1.66 8 -2.32 8 -3 8 C-3.36923077 3.44615385 -3.36923077 3.44615385 -1.5 1.1875 C-1.005 0.795625 -0.51 0.40375 0 0 Z " fill="#6D6E6F" transform="translate(461,560)"/>
<path d="M0 0 C3.0916909 2.52956528 3.90931332 5.22454612 5 9 C2 8 2 8 0.8125 6.1875 C0 4 0 4 0 0 Z " fill="#626364" transform="translate(314,424)"/>
<path d="M0 0 C0.66 0 1.32 0 2 0 C0.90931332 3.77545388 0.0916909 6.47043472 -3 9 C-2.44271087 5.65626525 -1.64826111 2.96687001 0 0 Z " fill="#656666" transform="translate(431,415)"/>
<path d="M0 0 C1.65 0.33 3.3 0.66 5 1 C2.50494038 3.49505962 1.32671112 3.35948376 -2.125 3.625 C-3.03507812 3.69976562 -3.94515625 3.77453125 -4.8828125 3.8515625 C-5.93082031 3.92503906 -5.93082031 3.92503906 -7 4 C-4.35261084 2.5393715 -3.10551666 2 0 2 C0 1.34 0 0.68 0 0 Z " fill="#BBBAB9" transform="translate(286,115)"/>
<path d="M0 0 C3.0916909 2.52956528 3.90931332 5.22454612 5 9 C2.5 6.75 2.5 6.75 0 4 C0 2.68 0 1.36 0 0 Z " fill="#585959" transform="translate(332,459)"/>
<path d="M0 0 C2.5625 2.25 2.5625 2.25 5 5 C4.8125 7.3125 4.8125 7.3125 4 9 C0 2.25 0 2.25 0 0 Z " fill="#616262" transform="translate(320,234)"/>
<path d="M0 0 C1.65 0 3.3 0 5 0 C5 0.33 5 0.66 5 1 C3.35 1 1.7 1 0 1 C0 0.67 0 0.34 0 0 Z " fill="#B3B3B2" transform="translate(366,544)"/>
<path d="M0 0 C0 3 0 3 0 3 Z " fill="#949394" transform="translate(206,219)"/>
<path d="M0 0 C0.66 0 1.32 0 2 0 C1.67 0.66 1.34 1.32 1 2 C0.67 1.34 0.34 0.68 0 0 Z " fill="#B4B4B3" transform="translate(418,632)"/>
<path d="M0 0 C0.66 0 1.32 0 2 0 C1.67 0.66 1.34 1.32 1 2 C0.67 1.34 0.34 0.68 0 0 Z " fill="#949392" transform="translate(334,470)"/>
<path d="M0 0 C3 1 3 1 3 1 Z " fill="#CDCDCB" transform="translate(381,118)"/>
<path d="M0 0 C3 1 3 1 3 1 Z " fill="#CDCDCC" transform="translate(321,114)"/>
<path d="M0 0 C2 1 2 1 2 1 Z " fill="#CACAC9" transform="translate(345,642)"/>
<path d="M0 0 C2 1 2 1 2 1 Z " fill="#CBCBCA" transform="translate(321,642)"/>
<path d="M0 0 C2 1 2 1 2 1 Z " fill="#C6C7C6" transform="translate(381,640)"/>
<path d="" fill="#AAA8A9" transform="translate(0,0)"/>
<path d="" fill="#A3A3A2" transform="translate(0,0)"/>
<path d="" fill="#9E9D9C" transform="translate(0,0)"/>
<path d="M0 0 C2 1 2 1 2 1 Z " fill="#969595" transform="translate(333,472)"/>
<path d="M0 0 C2 1 2 1 2 1 Z " fill="#969695" transform="translate(326,456)"/>
<path d="" fill="#CACACA" transform="translate(0,0)"/>
<path d="M0 0 C2 1 2 1 2 1 Z " fill="#898B8B" transform="translate(353,292)"/>
<path d="M0 0 C2 1 2 1 2 1 Z " fill="#8C8D8C" transform="translate(241,289)"/>
<path d="" fill="#8C8C8A" transform="translate(0,0)"/>
<path d="" fill="#90908F" transform="translate(0,0)"/>
<path d="" fill="#949595" transform="translate(0,0)"/>
<path d="M0 0 C2 1 2 1 2 1 Z " fill="#CDCFCE" transform="translate(353,114)"/>
<path d="M0 0 C2 1 2 1 2 1 Z " fill="#CBCBCB" transform="translate(317,114)"/>
<path d="M0 0 C2 1 2 1 2 1 Z " fill="#CCCBCA" transform="translate(145,84)"/>
<path d="M0 0 C2 1 2 1 2 1 Z " fill="#CCCCCB" transform="translate(426,35)"/>
<path d="" fill="#C8CBCA" transform="translate(0,0)"/>
<path d="" fill="#CCC9C8" transform="translate(0,0)"/>
<path d="" fill="#C9CAC8" transform="translate(0,0)"/>
<path d="" fill="#CBC9C9" transform="translate(0,0)"/>
<path d="" fill="#CDCACA" transform="translate(0,0)"/>
<path d="" fill="#C8C6C5" transform="translate(0,0)"/>
<path d="" fill="#CACBC9" transform="translate(0,0)"/>
<path d="" fill="#ACAEAE" transform="translate(0,0)"/>
<path d="" fill="#CFCFD0" transform="translate(0,0)"/>
<path d="" fill="#B7B7B6" transform="translate(0,0)"/>
<path d="" fill="#B6B6B5" transform="translate(0,0)"/>
<path d="" fill="#CCCCCD" transform="translate(0,0)"/>
<path d="" fill="#CCCACA" transform="translate(0,0)"/>
<path d="" fill="#CACBCB" transform="translate(0,0)"/>
<path d="" fill="#CCCACA" transform="translate(0,0)"/>
<path d="" fill="#CDCDCE" transform="translate(0,0)"/>
<path d="" fill="#C8C7C6" transform="translate(0,0)"/>
<path d="" fill="#C9C7C8" transform="translate(0,0)"/>
<path d="" fill="#CAC8C9" transform="translate(0,0)"/>
<path d="" fill="#CBCAC9" transform="translate(0,0)"/>
<path d="" fill="#CAC9C9" transform="translate(0,0)"/>
<path d="" fill="#C8C9C8" transform="translate(0,0)"/>
<path d="" fill="#CACAC8" transform="translate(0,0)"/>
<path d="" fill="#8E8E8E" transform="translate(0,0)"/>
<path d="" fill="#BBBABC" transform="translate(0,0)"/>
<path d="" fill="#90908F" transform="translate(0,0)"/>
<path d="" fill="#CECECD" transform="translate(0,0)"/>
<path d="" fill="#CBCDC9" transform="translate(0,0)"/>
<path d="" fill="#888787" transform="translate(0,0)"/>
<path d="" fill="#A8A7A7" transform="translate(0,0)"/>
<path d="" fill="#A3A4A2" transform="translate(0,0)"/>
<path d="" fill="#CCCCCB" transform="translate(0,0)"/>
<path d="" fill="#8E8D8D" transform="translate(0,0)"/>
<path d="" fill="#8B8C8A" transform="translate(0,0)"/>
<path d="" fill="#8C8D8F" transform="translate(0,0)"/>
<path d="" fill="#CECECD" transform="translate(0,0)"/>
<path d="" fill="#9D9C9D" transform="translate(0,0)"/>
<path d="" fill="#9A9B98" transform="translate(0,0)"/>
<path d="" fill="#C9C7C9" transform="translate(0,0)"/>
<path d="" fill="#CCCDCC" transform="translate(0,0)"/>
<path d="" fill="#CFCFCF" transform="translate(0,0)"/>
<path d="" fill="#999799" transform="translate(0,0)"/>
<path d="" fill="#999A97" transform="translate(0,0)"/>
<path d="" fill="#CDCCCB" transform="translate(0,0)"/>
<path d="" fill="#929291" transform="translate(0,0)"/>
<path d="" fill="#949597" transform="translate(0,0)"/>
<path d="" fill="#CAC9C9" transform="translate(0,0)"/>
<path d="" fill="#CDCECB" transform="translate(0,0)"/>
<path d="" fill="#959497" transform="translate(0,0)"/>
<path d="" fill="#CCCBCA" transform="translate(0,0)"/>
<path d="" fill="#929293" transform="translate(0,0)"/>
<path d="" fill="#929193" transform="translate(0,0)"/>
<path d="" fill="#C9CAC9" transform="translate(0,0)"/>
<path d="" fill="#CAC9C9" transform="translate(0,0)"/>
<path d="" fill="#919090" transform="translate(0,0)"/>
<path d="" fill="#959696" transform="translate(0,0)"/>
<path d="" fill="#8D8E8D" transform="translate(0,0)"/>
<path d="" fill="#939091" transform="translate(0,0)"/>
<path d="" fill="#959495" transform="translate(0,0)"/>
<path d="" fill="#909291" transform="translate(0,0)"/>
<path d="" fill="#8F8F8F" transform="translate(0,0)"/>
<path d="" fill="#8D8E8D" transform="translate(0,0)"/>
<path d="" fill="#8D8C8B" transform="translate(0,0)"/>
<path d="" fill="#8C8B8A" transform="translate(0,0)"/>
<path d="" fill="#888988" transform="translate(0,0)"/>
<path d="" fill="#8C8B8B" transform="translate(0,0)"/>
<path d="" fill="#888889" transform="translate(0,0)"/>
<path d="" fill="#898988" transform="translate(0,0)"/>
<path d="" fill="#868787" transform="translate(0,0)"/>
<path d="" fill="#8C8D8C" transform="translate(0,0)"/>
<path d="" fill="#CCCCCC" transform="translate(0,0)"/>
<path d="" fill="#D0D0CE" transform="translate(0,0)"/>
<path d="" fill="#CAC9CA" transform="translate(0,0)"/>
<path d="" fill="#CCCCCD" transform="translate(0,0)"/>
<path d="" fill="#878786" transform="translate(0,0)"/>
<path d="" fill="#898687" transform="translate(0,0)"/>
<path d="" fill="#CDCDCB" transform="translate(0,0)"/>
<path d="" fill="#8F908E" transform="translate(0,0)"/>
<path d="" fill="#8A8989" transform="translate(0,0)"/>
<path d="" fill="#CDCECD" transform="translate(0,0)"/>
<path d="" fill="#8D8E8D" transform="translate(0,0)"/>
<path d="" fill="#8A8A8A" transform="translate(0,0)"/>
<path d="" fill="#8D8D8C" transform="translate(0,0)"/>
<path d="" fill="#919191" transform="translate(0,0)"/>
<path d="" fill="#878685" transform="translate(0,0)"/>
<path d="" fill="#8D8D8B" transform="translate(0,0)"/>
<path d="" fill="#8A8B8A" transform="translate(0,0)"/>
<path d="" fill="#8A8C8C" transform="translate(0,0)"/>
<path d="" fill="#8D8E8C" transform="translate(0,0)"/>
<path d="" fill="#8D8E8E" transform="translate(0,0)"/>
<path d="" fill="#929492" transform="translate(0,0)"/>
<path d="" fill="#8B8B8A" transform="translate(0,0)"/>
<path d="" fill="#8C8C8C" transform="translate(0,0)"/>
<path d="" fill="#CCCDCC" transform="translate(0,0)"/>
<path d="" fill="#CCCCCB" transform="translate(0,0)"/>
<path d="" fill="#8A888A" transform="translate(0,0)"/>
<path d="" fill="#838282" transform="translate(0,0)"/>
<path d="" fill="#919190" transform="translate(0,0)"/>
<path d="" fill="#919193" transform="translate(0,0)"/>
<path d="" fill="#CBCBCB" transform="translate(0,0)"/>
<path d="" fill="#88888A" transform="translate(0,0)"/>
<path d="" fill="#8C8D8B" transform="translate(0,0)"/>
<path d="" fill="#8B8C8C" transform="translate(0,0)"/>
<path d="" fill="#8F8E8E" transform="translate(0,0)"/>
<path d="" fill="#8F8F8F" transform="translate(0,0)"/>
<path d="" fill="#8D8D8D" transform="translate(0,0)"/>
<path d="" fill="#8B8B8A" transform="translate(0,0)"/>
<path d="" fill="#8F908E" transform="translate(0,0)"/>
<path d="" fill="#878A89" transform="translate(0,0)"/>
<path d="" fill="#CBCDCC" transform="translate(0,0)"/>
<path d="" fill="#CECECC" transform="translate(0,0)"/>
<path d="" fill="#8C8A89" transform="translate(0,0)"/>
<path d="" fill="#8E8E8E" transform="translate(0,0)"/>
<path d="" fill="#CBCBC9" transform="translate(0,0)"/>
<path d="" fill="#8E8F8E" transform="translate(0,0)"/>
<path d="" fill="#909090" transform="translate(0,0)"/>
<path d="" fill="#878787" transform="translate(0,0)"/>
<path d="" fill="#CCCCCD" transform="translate(0,0)"/>
<path d="" fill="#929191" transform="translate(0,0)"/>
<path d="" fill="#8A8A89" transform="translate(0,0)"/>
<path d="" fill="#919090" transform="translate(0,0)"/>
<path d="" fill="#909090" transform="translate(0,0)"/>
<path d="" fill="#919190" transform="translate(0,0)"/>
<path d="" fill="#949594" transform="translate(0,0)"/>
<path d="" fill="#939391" transform="translate(0,0)"/>
<path d="" fill="#949291" transform="translate(0,0)"/>
<path d="" fill="#CACBC8" transform="translate(0,0)"/>
<path d="" fill="#959694" transform="translate(0,0)"/>
<path d="" fill="#989898" transform="translate(0,0)"/>
<path d="" fill="#949495" transform="translate(0,0)"/>
<path d="" fill="#939291" transform="translate(0,0)"/>
<path d="" fill="#969393" transform="translate(0,0)"/>
<path d="" fill="#9B9D9C" transform="translate(0,0)"/>
<path d="" fill="#959494" transform="translate(0,0)"/>
<path d="" fill="#9E9D9D" transform="translate(0,0)"/>
<path d="" fill="#9B9A98" transform="translate(0,0)"/>
<path d="" fill="#BEBEBC" transform="translate(0,0)"/>
<path d="" fill="#B8B8B7" transform="translate(0,0)"/>
<path d="" fill="#BDBDBE" transform="translate(0,0)"/>
<path d="" fill="#BBBBB9" transform="translate(0,0)"/>
<path d="" fill="#CAC8C8" transform="translate(0,0)"/>
<path d="" fill="#CCCCCB" transform="translate(0,0)"/>
<path d="" fill="#C4C4C4" transform="translate(0,0)"/>
<path d="" fill="#C5C4C3" transform="translate(0,0)"/>
<path d="" fill="#CCCCC9" transform="translate(0,0)"/>
<path d="" fill="#CCCBCE" transform="translate(0,0)"/>
<path d="" fill="#CBCBC9" transform="translate(0,0)"/>
<path d="" fill="#CFCFCD" transform="translate(0,0)"/>
<path d="" fill="#D0CCCE" transform="translate(0,0)"/>
<path d="" fill="#CCCBC8" transform="translate(0,0)"/>
<path d="" fill="#CCCBCC" transform="translate(0,0)"/>
<path d="" fill="#D1D1D2" transform="translate(0,0)"/>
<path d="" fill="#CFCCCA" transform="translate(0,0)"/>
<path d="" fill="#CDCDCB" transform="translate(0,0)"/>
<path d="" fill="#CFCECC" transform="translate(0,0)"/>
<path d="" fill="#CCCCCD" transform="translate(0,0)"/>
<path d="" fill="#CFCDCD" transform="translate(0,0)"/>
<path d="" fill="#CECECD" transform="translate(0,0)"/>
<path d="" fill="#CDCDCC" transform="translate(0,0)"/>
<path d="" fill="#CCCACB" transform="translate(0,0)"/>
<path d="" fill="#CDCECC" transform="translate(0,0)"/>
<path d="" fill="#D0D1CE" transform="translate(0,0)"/>
<path d="" fill="#C5C5C3" transform="translate(0,0)"/>
<path d="" fill="#CACAC9" transform="translate(0,0)"/>
<path d="" fill="#CCCCCB" transform="translate(0,0)"/>
<path d="" fill="#CCCBCA" transform="translate(0,0)"/>
<path d="" fill="#CACBCA" transform="translate(0,0)"/>
<path d="" fill="#CACBCD" transform="translate(0,0)"/>
<path d="" fill="#CCCACA" transform="translate(0,0)"/>
<path d="" fill="#CBC9C9" transform="translate(0,0)"/>
<path d="" fill="#CACCCB" transform="translate(0,0)"/>
<path d="" fill="#CBCAC8" transform="translate(0,0)"/>
<path d="" fill="#CACBC8" transform="translate(0,0)"/>
<path d="" fill="#CDCBCB" transform="translate(0,0)"/>
<path d="" fill="#CFD0CF" transform="translate(0,0)"/>
<path d="" fill="#CBCCC9" transform="translate(0,0)"/>
<path d="" fill="#C8CAC7" transform="translate(0,0)"/>
<path d="" fill="#CDCDCA" transform="translate(0,0)"/>
<path d="" fill="#CCCCCB" transform="translate(0,0)"/>
</svg>
